<svg width="24" height="24" viewBox="0 0 24 24" fill="none" xmlns="http://www.w3.org/2000/svg">
<path d="M21.533 7.13787C21.5482 7.35106 21.5482 7.56429 21.5482 7.77748C21.5482 14.28 16.599 21.7724 7.5533 21.7724C5.19265 21.7724 2.97408 21.1932 1.02713 20.1646C0.768092 20.0277 0.894837 19.6252 1.18781 19.6252C3.48726 19.6252 5.60405 18.8486 7.2944 17.5237C5.46348 17.485 3.88365 16.4638 3.0633 14.9684C2.85661 14.5916 3.19463 14.1886 3.62437 14.1886C4.06598 14.1886 4.50764 14.1277 4.91878 14.0211C2.66498 13.5642 0.974578 11.5846 0.974578 9.19372V9.13283C1.62937 9.49831 2.39086 9.72673 3.19791 9.75715C1.87303 8.87389 1.00505 7.3663 1.00505 5.6607C1.00505 5.26397 1.05098 4.88159 1.13786 4.51605C1.29955 3.83579 2.14878 3.75823 2.64333 4.25252C5.01744 6.62541 8.2485 8.13923 11.8172 8.32569C11.7411 7.9602 11.6954 7.57953 11.6954 7.19881C11.6954 4.48812 13.8883 2.28003 16.6141 2.28003C18.0304 2.28003 19.3095 2.87394 20.208 3.83333C21.2307 3.6372 22.2148 3.27349 23.1009 2.77781C23.1813 2.73284 23.2752 2.809 23.2424 2.89508C22.8485 3.92722 22.1125 4.79196 21.1674 5.35615C22.0387 5.26237 22.8864 5.0387 23.6794 4.72685C23.7727 4.69013 23.8584 4.79644 23.7989 4.8772C23.1652 5.73729 22.3987 6.50575 21.533 7.13787Z" fill="#1E2B3C"/>
</svg>
