<svg width="24" height="24" viewBox="0 0 24 24" fill="none" xmlns="http://www.w3.org/2000/svg">
<g clip-path="url(#clip0_575_4547)">
<path fill-rule="evenodd" clip-rule="evenodd" d="M16 12C16.5523 12 17 12.4477 17 13V21C17 21.5523 16.5523 22 16 22C15.4477 22 15 21.5523 15 21V13C15 12.4477 15.4477 12 16 12Z" fill="#1E2B3C"/>
<path fill-rule="evenodd" clip-rule="evenodd" d="M8 12C8.55228 12 9 12.4477 9 13V21C9 21.5523 8.55228 22 8 22C7.44772 22 7 21.5523 7 21V13C7 12.4477 7.44772 12 8 12Z" fill="#1E2B3C"/>
<path fill-rule="evenodd" clip-rule="evenodd" d="M12 14C12.5523 14 13 14.4477 13 15V23C13 23.5523 12.5523 24 12 24C11.4477 24 11 23.5523 11 23V15C11 14.4477 11.4477 14 12 14Z" fill="#1E2B3C"/>
<path fill-rule="evenodd" clip-rule="evenodd" d="M8.08827 0.0465457C9.50715 -0.0979346 10.9401 0.0968592 12.2689 0.614871C13.5977 1.13288 14.7844 1.95928 15.7311 3.02595C16.5039 3.89662 17.0987 4.90703 17.4852 5.99996H18.0071C19.3842 6.00158 20.7189 6.47691 21.7871 7.34616C22.8553 8.21541 23.5919 9.42567 23.8734 10.7738C24.1548 12.1219 23.9639 13.5258 23.3328 14.7498C22.7016 15.9738 21.6686 16.9435 20.4071 17.496C19.9012 17.7175 19.3115 17.487 19.0899 16.9811C18.8683 16.4752 19.0988 15.8855 19.6047 15.664C20.4457 15.2956 21.1344 14.6492 21.5552 13.8332C21.976 13.0172 22.1032 12.0812 21.9156 11.1825C21.728 10.2838 21.2369 9.47693 20.5248 8.89742C19.8127 8.31801 18.9231 8.00113 18.0051 7.99996C18.005 7.99996 18.0052 7.99996 18.0051 7.99996H16.7459C16.2899 7.99996 15.8917 7.69149 15.7777 7.24999C15.5003 6.17595 14.9717 5.1832 14.2353 4.35357C13.499 3.52394 12.576 2.88119 11.5425 2.47829C10.5089 2.07539 9.39445 1.92388 8.29088 2.03626C7.18731 2.14863 6.12624 2.52167 5.19514 3.12462C4.26404 3.72757 3.48956 4.54317 2.93555 5.50419C2.38153 6.46521 2.06384 7.54414 2.00867 8.65205C1.95349 9.75996 2.1624 10.8651 2.61818 11.8764C3.07397 12.8877 3.76357 13.7763 4.63016 14.4687C5.06161 14.8135 5.13188 15.4428 4.78711 15.8742C4.44234 16.3057 3.81308 16.3759 3.38163 16.0312C2.26745 15.1408 1.38082 13.9985 0.794809 12.6982C0.208801 11.3979 -0.0598009 9.97702 0.0111423 8.55257C0.0820855 7.12812 0.490543 5.74092 1.20285 4.50532C1.91515 3.26972 2.91091 2.22109 4.10804 1.44587C5.30517 0.670643 6.66939 0.191026 8.08827 0.0465457Z" fill="#1E2B3C"/>
</g>
<defs>
<clipPath id="clip0_575_4547">
<rect width="24" height="24" fill="white"/>
</clipPath>
</defs>
</svg>
