<svg width="24" height="24" viewBox="0 0 24 24" fill="none" xmlns="http://www.w3.org/2000/svg">
<g clip-path="url(#clip0_637_7153)">
<path fill-rule="evenodd" clip-rule="evenodd" d="M9.1789 1.40293C11.3628 0.884482 13.638 0.884513 15.8219 1.40302C17.0874 0.604372 18.0793 0.233564 18.8143 0.0759743C19.2179 -0.0105706 19.5411 -0.032121 19.7852 -0.0257536C19.9069 -0.0225773 20.0079 -0.0124803 20.0883 -0.000446741C20.1285 0.00556355 20.1634 0.0120366 20.193 0.0183267C20.2078 0.0214707 20.2213 0.0245658 20.2334 0.02753L20.2507 0.0318662L20.2585 0.0339402L20.2623 0.0349502L20.2641 0.035448C20.265 0.0356947 20.2659 0.0359408 20.0002 1L20.2659 0.0359409C20.5591 0.116736 20.7995 0.326544 20.9193 0.606051C21.4681 1.88645 21.4753 3.27357 21.1252 4.53981C22.0079 5.6475 22.5002 6.98406 22.5002 8.52C22.5002 11.4663 21.5989 13.4423 20.1013 14.7016C19.095 15.5478 17.8928 16.0053 16.7075 16.2666C16.7229 16.3058 16.7378 16.3452 16.7521 16.3849C16.9575 16.9554 17.0419 17.5622 17.0002 18.1667V22C17.0002 22.5523 16.5525 23 16.0002 23C15.4479 23 15.0002 22.5523 15.0002 22V18.13C15.0002 18.1038 15.0012 18.0777 15.0033 18.0516C15.0297 17.7162 14.9844 17.3791 14.8704 17.0626C14.7564 16.7462 14.5763 16.4576 14.3422 16.2161C14.0766 15.9421 13.9901 15.5409 14.1191 15.1818C14.2481 14.8228 14.5702 14.5684 14.9494 14.5262C16.4632 14.3574 17.8282 13.9999 18.8141 13.1709C19.7515 12.3827 20.5002 11.0337 20.5002 8.52C20.5002 7.29723 20.0681 6.29161 19.2759 5.45952C19.0121 5.18235 18.9295 4.77889 19.0633 4.42036C19.363 3.61738 19.4452 2.78467 19.2806 2.0218C19.2653 2.02486 19.2496 2.02809 19.2336 2.03152C18.7228 2.14105 17.8391 2.45119 16.557 3.31064C16.3165 3.47183 16.018 3.52091 15.7386 3.44518C13.6179 2.87043 11.3825 2.87043 9.26178 3.44518C8.98237 3.52091 8.68386 3.47183 8.44339 3.31064C7.15585 2.44756 6.29246 2.13826 5.80472 2.02998C5.80221 2.02942 5.79971 2.02887 5.79722 2.02832C5.60397 2.81668 5.64972 3.65036 5.93708 4.42036C6.07089 4.7789 5.98833 5.18237 5.72445 5.45954C4.93209 6.29179 4.5002 7.3486 4.5002 8.55C4.5002 11.0405 5.24694 12.381 6.18628 13.1709C7.17578 14.0029 8.54465 14.369 10.0635 14.5576C10.4397 14.6044 10.7571 14.8598 10.8832 15.2174C11.0094 15.5749 10.9225 15.973 10.6588 16.2454C10.4274 16.4845 10.249 16.7696 10.1351 17.0822C10.0212 17.3949 9.97439 17.7279 9.99774 18.0598C9.99938 18.0832 10.0002 18.1066 10.0002 18.13V18.9952C10.0002 18.9982 10.0002 19.0012 10.0002 19.0042V22C10.0002 22.5523 9.55248 23 9.0002 23C8.44791 23 8.0002 22.5523 8.0002 22V20.2543C7.19403 20.3777 6.48459 20.3565 5.85044 20.2081C4.88567 19.9823 4.19663 19.4856 3.66809 18.9571C3.40945 18.6985 3.18663 18.4295 2.99408 18.1883C2.92866 18.1064 2.86887 18.0305 2.81238 17.9588C2.69195 17.8058 2.58649 17.6719 2.47333 17.5391C2.28854 17.3222 2.14327 17.1837 2.01872 17.0959L1.60628 16.9191C1.12712 16.7138 0.8861 16.1748 1.05253 15.6808C1.21896 15.1867 1.73699 14.9034 2.24273 15.0299C2.50442 15.0953 2.73839 15.1963 2.9484 15.3184L8.01076 17.488C8.04538 17.1165 8.12753 16.75 8.25593 16.3976C8.26997 16.3591 8.28454 16.3207 8.29964 16.2827C7.11257 16.012 5.90721 15.5493 4.89912 14.7016C3.40346 13.444 2.5002 11.4795 2.5002 8.55C2.5002 7.04595 2.98439 5.66706 3.8788 4.53738C3.53757 3.23658 3.63674 1.8527 4.17107 0.60605C4.28819 0.332797 4.52081 0.125823 4.80583 0.0412829L5.0902 0.999999C4.80583 0.0412828 4.8068 0.0409964 4.80777 0.0407097L4.80974 0.0401321L4.81377 0.0389645L4.82217 0.0365824L4.84038 0.03166C4.85314 0.0283181 4.86715 0.0248726 4.8824 0.0214049C4.91291 0.0144665 4.94834 0.00745707 4.98874 0.00101357C5.06965 -0.0118899 5.16983 -0.0224167 5.28972 -0.0257162C5.53002 -0.0323302 5.8449 -0.00979203 6.23818 0.0775168C6.95285 0.236178 7.92202 0.607552 9.1789 1.40293Z" fill="#1E2B3C"/>
</g>
<defs>
<clipPath id="clip0_637_7153">
<rect width="24" height="24" fill="white"/>
</clipPath>
</defs>
</svg>
