<svg width="24" height="24" viewBox="0 0 24 24" fill="none" xmlns="http://www.w3.org/2000/svg">
<g clip-path="url(#clip0_575_4310)">
<path fill-rule="evenodd" clip-rule="evenodd" d="M4.55678 2.48166C4.55557 2.47794 4.55439 2.47421 4.55326 2.47046L4.55678 2.48166ZM5.10763 4.17286L6.99932 9.97975C7.13343 10.3914 7.5172 10.67 7.95014 10.67H16.0501C16.4834 10.67 16.8673 10.391 17.0012 9.97901L18.8869 4.1751L20.7791 9.99901L22.0034 13.6239L12.0001 20.8938L2.03572 13.6521L5.10763 4.17286ZM19.2709 2.74167L19.2746 2.73836C19.2734 2.73947 19.2721 2.74057 19.2709 2.74167ZM4.14755 1.26C4.41083 1.02034 4.75407 0.887497 5.11014 0.887497C5.46705 0.887497 5.81105 1.02096 6.07456 1.26166C6.08151 1.268 6.08837 1.27444 6.09513 1.28098C6.26571 1.44586 6.39221 1.65079 6.46317 1.87702L8.6761 8.67001H15.3236L17.5391 1.85101C17.5447 1.83361 17.5509 1.81636 17.5575 1.7993C17.6372 1.59317 17.7639 1.40851 17.9275 1.26C18.1908 1.02035 18.5341 0.887497 18.8901 0.887497C19.247 0.887497 19.591 1.02096 19.8546 1.26166C19.8615 1.268 19.8684 1.27444 19.8751 1.28098C20.0458 1.44597 20.1724 1.65108 20.2433 1.87751L22.6794 9.3754L23.9476 13.13C23.9496 13.1359 23.9515 13.1419 23.9534 13.1478C23.9558 13.1553 23.9581 13.1629 23.9603 13.1704C24.0709 13.5504 24.0561 13.956 23.918 14.3269C23.7836 14.6878 23.5395 14.9972 23.2204 15.2117L12.588 22.9389C12.2375 23.1937 11.7628 23.1937 11.4122 22.9389L0.762244 15.1989L0.757682 15.1956C0.444936 14.9656 0.212952 14.6426 0.0949196 14.2727C-0.0227092 13.9042 -0.0211584 13.5079 0.099294 13.1403L3.75908 1.85101C3.76474 1.83361 3.77087 1.81636 3.77747 1.7993C3.85718 1.59317 3.98391 1.40851 4.14755 1.26ZM17.9275 1.26C17.9282 1.25945 17.9288 1.2589 17.9294 1.25834L18.6001 2.00001L17.9257 1.26166C17.9263 1.2611 17.9269 1.26055 17.9275 1.26Z" fill="#1E2B3C"/>
</g>
<defs>
<clipPath id="clip0_575_4310">
<rect width="24" height="24" fill="white"/>
</clipPath>
</defs>
</svg>
