<svg width="24" height="24" viewBox="0 0 24 24" fill="none" xmlns="http://www.w3.org/2000/svg">
<path fill-rule="evenodd" clip-rule="evenodd" d="M9.01187 3.15355L10.2038 6.50002H14.7667L16.0333 3.15433L12.6967 3.48527C12.5643 3.4984 12.431 3.49829 12.2986 3.48495L9.01187 3.15355ZM15.0517 8.50002H9.88721C9.46405 8.89125 8.73955 9.58874 8.01631 10.4977C7.0653 11.6928 6.20228 13.1502 5.98833 14.642C5.47017 18.255 6.14677 19.7647 7.08738 20.4936C7.59869 20.8898 8.29977 21.1523 9.23256 21.3076C10.1666 21.4632 11.2569 21.5 12.4987 21.5C15.0063 21.5 16.7862 21.2109 17.8562 20.3277C18.8289 19.5247 19.4827 17.9741 19.0084 14.6409C18.7943 13.1363 18.0245 11.801 17.1347 10.6864C16.4515 9.83062 15.7571 9.17073 15.2165 8.65689C15.1598 8.60301 15.1048 8.55074 15.0517 8.50002ZM8.33475 7.21319L6.65048 2.48446C6.37948 1.72362 6.99348 0.939902 7.79706 1.02093L12.4993 1.49504L17.2803 1.02082C18.0926 0.940251 18.7066 1.74144 18.4176 2.50489L16.6266 7.23616C17.1673 7.74998 17.9616 8.51655 18.6977 9.43863C19.7039 10.699 20.7045 12.3638 20.9885 14.3591C21.5003 17.9561 20.9036 20.4055 19.1294 21.87C17.4526 23.2542 14.9896 23.5 12.4987 23.5C11.2411 23.5 10.0112 23.4649 8.90397 23.2804C7.79551 23.0958 6.73431 22.7502 5.86229 22.0745C4.03626 20.6594 3.46203 18.1691 4.00858 14.3581C4.29658 12.3499 5.41305 10.5572 6.4513 9.25238C7.15718 8.36526 7.86652 7.65594 8.33475 7.21319Z" fill="#1E2B3C"/>
<path fill-rule="evenodd" clip-rule="evenodd" d="M10.959 10.6691C11.5113 10.6691 11.959 11.1168 11.959 11.6691V19.1691C11.959 19.7214 11.5113 20.1691 10.959 20.1691C10.4067 20.1691 9.95898 19.7214 9.95898 19.1691V11.6691C9.95898 11.1168 10.4067 10.6691 10.959 10.6691Z" fill="#1E2B3C"/>
<path fill-rule="evenodd" clip-rule="evenodd" d="M13.1802 12.6045C12.5815 12.4309 11.7766 12.4954 11.2013 12.6392C10.6655 12.7732 10.1226 12.4474 9.98862 11.9116C9.85468 11.3758 10.1804 10.8329 10.7162 10.699C11.4743 10.5094 12.6694 10.374 13.7373 10.6837C14.2872 10.8432 14.8577 11.1373 15.2905 11.6583C15.7329 12.1908 15.9588 12.8734 15.9588 13.6691C15.9588 14.4611 15.7338 15.1492 15.2547 15.6661C14.7871 16.1705 14.1799 16.4011 13.6216 16.4932C12.5412 16.6715 11.3493 16.3835 10.6076 16.1054C10.0905 15.9115 9.82852 15.3351 10.0224 14.8179C10.2164 14.3008 10.7928 14.0388 11.3099 14.2327C11.9015 14.4546 12.7097 14.6167 13.296 14.5199C13.571 14.4745 13.7137 14.3865 13.7879 14.3065C13.8504 14.239 13.9588 14.0771 13.9588 13.6691C13.9588 13.2648 13.8513 13.0557 13.752 12.9362C13.6431 12.8051 13.4636 12.6867 13.1802 12.6045Z" fill="#1E2B3C"/>
<path fill-rule="evenodd" clip-rule="evenodd" d="M4.5 7.5C4.5 6.94772 4.94772 6.5 5.5 6.5L19.5 6.5C20.0523 6.5 20.5 6.94772 20.5 7.5C20.5 8.05228 20.0523 8.5 19.5 8.5L5.5 8.5C4.94772 8.5 4.5 8.05228 4.5 7.5Z" fill="#1E2B3C"/>
</svg>
