<svg width="24" height="24" viewBox="0 0 24 24" fill="none" xmlns="http://www.w3.org/2000/svg">
<path fill-rule="evenodd" clip-rule="evenodd" d="M10 5C10 3.89543 10.8954 3 12 3C13.1046 3 14 3.89543 14 5C14 6.10457 13.1046 7 12 7C10.8954 7 10 6.10457 10 5Z" fill="#1E2B3C"/>
<path fill-rule="evenodd" clip-rule="evenodd" d="M12.0002 13C12.379 13 12.7253 13.214 12.8946 13.5528L15.8946 19.5528C16.1416 20.0468 15.9414 20.6474 15.4474 20.8944C14.9535 21.1414 14.3528 20.9412 14.1058 20.4472L12.0002 16.2361L9.89465 20.4472C9.64766 20.9412 9.04698 21.1414 8.55301 20.8944C8.05903 20.6474 7.8588 20.0468 8.10579 19.5528L11.1058 13.5528C11.2752 13.214 11.6214 13 12.0002 13Z" fill="#1E2B3C"/>
<path fill-rule="evenodd" clip-rule="evenodd" d="M5.0511 7.6838C5.22575 7.15986 5.79207 6.8767 6.31601 7.05134L11.9998 8.94593L17.6836 7.05134C18.2075 6.8767 18.7738 7.15986 18.9485 7.6838C19.1231 8.20774 18.84 8.77406 18.316 8.94871L12.316 10.9487C12.1107 11.0171 11.8888 11.0171 11.6836 10.9487L5.68356 8.94871C5.15961 8.77406 4.87645 8.20774 5.0511 7.6838Z" fill="#1E2B3C"/>
<path fill-rule="evenodd" clip-rule="evenodd" d="M12 9C12.5523 9 13 9.44772 13 10V14C13 14.5523 12.5523 15 12 15C11.4477 15 11 14.5523 11 14V10C11 9.44772 11.4477 9 12 9Z" fill="#1E2B3C"/>
</svg>
