<svg width="24" height="24" viewBox="0 0 24 24" fill="none" xmlns="http://www.w3.org/2000/svg">
<g clip-path="url(#clip0_575_4082)">
<path fill-rule="evenodd" clip-rule="evenodd" d="M18.2929 0.292893C18.6834 -0.0976311 19.3166 -0.0976311 19.7071 0.292893L23.7071 4.29289C24.0976 4.68342 24.0976 5.31658 23.7071 5.70711L19.7071 9.70711C19.3166 10.0976 18.6834 10.0976 18.2929 9.70711C17.9024 9.31658 17.9024 8.68342 18.2929 8.29289L21.5858 5L18.2929 1.70711C17.9024 1.31658 17.9024 0.683417 18.2929 0.292893Z" fill="#1E2B3C"/>
<path fill-rule="evenodd" clip-rule="evenodd" d="M14 5C14 4.44772 14.4477 4 15 4H23C23.5523 4 24 4.44772 24 5C24 5.55228 23.5523 6 23 6H15C14.4477 6 14 5.55228 14 5Z" fill="#1E2B3C"/>
<path fill-rule="evenodd" clip-rule="evenodd" d="M7.78166 3.24169C7.59767 3.08347 7.36243 2.99754 7.11977 2.99993L7.10993 3.00002L4.11055 2.99997C3.97183 3.00015 3.83466 3.02919 3.70777 3.08524C3.58078 3.14133 3.46686 3.22325 3.37326 3.32579C3.27966 3.42832 3.20844 3.54922 3.16413 3.68079C3.12051 3.81027 3.10391 3.9473 3.1153 4.08341C3.42805 7.01497 4.42624 9.83185 6.02921 12.3063L6.03398 12.3136C7.49058 14.6059 9.43399 16.5494 11.7263 18.006L11.7341 18.0109C14.1969 19.6081 16.9996 20.606 19.9175 20.9247C20.0537 20.936 20.1908 20.9192 20.3203 20.8754C20.4522 20.8308 20.5734 20.7591 20.676 20.665C20.7786 20.5708 20.8604 20.4563 20.9162 20.3287C20.9143 20.3331 20.9231 20.3124 20.937 20.258C20.9498 20.2082 20.9621 20.1492 20.9728 20.0875C20.9834 20.0265 20.9913 19.9701 20.9962 19.928C20.9979 19.9132 20.9991 19.9016 20.9999 19.8934V16.92C20.9999 16.9117 21 16.9034 21.0002 16.8952C21.0063 16.65 20.9221 16.4111 20.7635 16.2239C20.6057 16.0377 20.3853 15.9156 20.1438 15.8807C19.1108 15.744 18.0966 15.4912 17.1203 15.1269L17.1181 15.126C16.9391 15.0588 16.7446 15.0442 16.5576 15.0841C16.3714 15.1238 16.2004 15.2159 16.0647 15.3494L14.797 16.6171C14.4787 16.9354 13.987 17.0018 13.5956 16.7793C10.9356 15.2667 8.73317 13.0643 7.22064 10.4043C6.99813 10.0129 7.06451 9.52118 7.38283 9.20287L8.65047 7.93523C8.78404 7.79954 8.87611 7.62852 8.91583 7.44228C8.95571 7.25529 8.94115 7.0608 8.87388 6.88184L8.87304 6.87958C8.50876 5.90337 8.2559 4.88916 8.11924 3.85621C8.08457 3.61738 7.96469 3.3991 7.78166 3.24169ZM7.10551 0.999975C7.83155 0.994138 8.53515 1.25182 9.08573 1.72532C9.63769 2.2 9.99821 2.85919 10.1001 3.58002L10.1014 3.58921C10.2181 4.47414 10.4345 5.34303 10.7464 6.17933C10.9479 6.71588 10.9914 7.29891 10.8718 7.85943C10.7522 8.42038 10.4743 8.93528 10.071 9.34311L10.0671 9.34709L9.34995 10.0642C10.5258 11.9088 12.0911 13.4741 13.9357 14.65L14.6528 13.9329L14.6568 13.9289C15.0646 13.5256 15.5795 13.2477 16.1405 13.1281C16.701 13.0085 17.284 13.052 17.8206 13.2535C18.6569 13.5654 19.5258 13.7818 20.4107 13.8986L20.4196 13.8997C21.1483 14.0025 21.8137 14.3696 22.2894 14.931C22.7622 15.489 23.0147 16.2003 22.9999 16.9312V19.92C22.9998 20.0504 22.9728 20.2601 22.9432 20.4304C22.9126 20.606 22.8549 20.887 22.7487 21.1299C22.5813 21.5127 22.3359 21.8563 22.028 22.1387C21.7202 22.4211 21.3568 22.6361 20.961 22.77C20.5653 22.9038 20.146 22.9535 19.7299 22.9159L19.7119 22.9141C16.4808 22.563 13.377 21.4593 10.6497 19.6915C8.11254 18.0785 5.96124 15.9271 4.34826 13.39C2.57424 10.6502 1.4702 7.5313 1.12552 4.28557L1.12399 4.26998C1.08651 3.85518 1.1358 3.43712 1.26874 3.04241C1.40168 2.64771 1.61535 2.28501 1.89614 1.97741C2.17693 1.66981 2.5187 1.42404 2.89968 1.25576C3.28066 1.08748 3.6925 1.00037 4.10899 0.999975L7.10551 0.999975Z" fill="#1E2B3C"/>
</g>
<defs>
<clipPath id="clip0_575_4082">
<rect width="24" height="24" fill="white"/>
</clipPath>
</defs>
</svg>
