<svg width="24" height="24" viewBox="0 0 24 24" fill="none" xmlns="http://www.w3.org/2000/svg">
<path fill-rule="evenodd" clip-rule="evenodd" d="M6 4C4.89543 4 4 4.89543 4 6C4 7.10457 4.89543 8 6 8C7.10457 8 8 7.10457 8 6C8 4.89543 7.10457 4 6 4ZM2 6C2 3.79086 3.79086 2 6 2C8.20914 2 10 3.79086 10 6C10 8.20914 8.20914 10 6 10C3.79086 10 2 8.20914 2 6Z" fill="#1E2B3C"/>
<path fill-rule="evenodd" clip-rule="evenodd" d="M6 16C4.89543 16 4 16.8954 4 18C4 19.1046 4.89543 20 6 20C7.10457 20 8 19.1046 8 18C8 16.8954 7.10457 16 6 16ZM2 18C2 15.7909 3.79086 14 6 14C8.20914 14 10 15.7909 10 18C10 20.2091 8.20914 22 6 22C3.79086 22 2 20.2091 2 18Z" fill="#1E2B3C"/>
<path fill-rule="evenodd" clip-rule="evenodd" d="M20.7072 3.29289C21.0977 3.68342 21.0977 4.31658 20.7072 4.70711L8.82722 16.5871C8.4367 16.9776 7.80353 16.9776 7.41301 16.5871C7.02249 16.1966 7.02249 15.5634 7.41301 15.1729L19.293 3.29289C19.6835 2.90237 20.3167 2.90237 20.7072 3.29289Z" fill="#1E2B3C"/>
<path fill-rule="evenodd" clip-rule="evenodd" d="M13.7622 13.7735C14.1524 13.3826 14.7856 13.3821 15.1764 13.7722L20.7064 19.2922C21.0973 19.6824 21.0979 20.3156 20.7077 20.7064C20.3175 21.0973 19.6844 21.0979 19.2935 20.7077L13.7635 15.1877C13.3726 14.7976 13.3721 14.1644 13.7622 13.7735Z" fill="#1E2B3C"/>
<path fill-rule="evenodd" clip-rule="evenodd" d="M7.41301 7.41289C7.80353 7.02236 8.4367 7.02236 8.82722 7.41289L12.7072 11.2929C13.0977 11.6834 13.0977 12.3166 12.7072 12.7071C12.3167 13.0976 11.6835 13.0976 11.293 12.7071L7.41301 8.8271C7.02249 8.43658 7.02249 7.80341 7.41301 7.41289Z" fill="#1E2B3C"/>
</svg>
