<svg width="24" height="24" viewBox="0 0 24 24" fill="none" xmlns="http://www.w3.org/2000/svg">
<path d="M16.2361 13.375C16.7298 13.375 17.1496 13.0147 17.2245 12.5267L17.5286 10.5452C17.6215 9.93956 17.1529 9.39352 16.5401 9.39352H13.885V6.80981C13.885 5.72055 14.4186 4.65879 16.1297 4.65879H16.8665C17.4187 4.65879 17.8665 4.21107 17.8665 3.65879V2.11278C17.8665 1.62541 17.5153 1.21004 17.0315 1.15126C16.4362 1.07891 15.5997 1 14.7834 1C11.6373 1 9.58079 2.90695 9.58079 6.35906V9.39352H7.08356C6.53127 9.39352 6.08356 9.84123 6.08356 10.3935V12.375C6.08356 12.9273 6.53127 13.375 7.08356 13.375H9.58079V22C9.58079 22.5523 10.0285 23 10.5808 23H12.885C13.4373 23 13.885 22.5523 13.885 22V13.375H16.2361Z" fill="#1E2B3C"/>
</svg>
