<svg width="24" height="24" viewBox="0 0 24 24" fill="none" xmlns="http://www.w3.org/2000/svg">
<path fill-rule="evenodd" clip-rule="evenodd" d="M11.7069 8.29485C12.0974 8.68537 12.0974 9.31854 11.7069 9.70906L3.20594 18.21C3.20592 18.21 3.20591 18.21 3.2059 18.2101C2.9959 18.4201 2.87793 18.7049 2.87793 19.002C2.87793 19.2863 2.98607 19.5595 3.17958 19.7666C3.18917 19.7755 3.1986 19.7845 3.20787 19.7938C3.41791 20.0038 3.70277 20.1218 3.9998 20.1218C4.29681 20.1218 4.58165 20.0038 4.79169 19.7938C4.7917 19.7938 4.79171 19.7938 4.79172 19.7938L13.2927 11.2928C13.6832 10.9023 14.3164 10.9023 14.7069 11.2928C15.0974 11.6834 15.0974 12.3165 14.7069 12.7071L6.2059 21.2081L6.20587 21.2081C5.62077 21.7931 4.82723 22.1218 3.9998 22.1218C3.1932 22.1218 2.4188 21.8095 1.8383 21.2518C1.82234 21.2377 1.80678 21.2232 1.79166 21.208C1.20661 20.6229 0.87793 19.8294 0.87793 19.002C0.87793 18.1745 1.20661 17.381 1.79166 16.7959L1.79169 16.7958L10.2927 8.29485C10.6832 7.90432 11.3164 7.90432 11.7069 8.29485Z" fill="#1E2B3C"/>
<path fill-rule="evenodd" clip-rule="evenodd" d="M12.2929 2.29289C12.6834 1.90237 13.3166 1.90237 13.7071 2.29289L19.4142 8H22C22.2997 8 22.5836 8.13442 22.7735 8.36624C22.9635 8.59806 23.0394 8.90285 22.9805 9.1967L22.8506 9.84407C22.5517 11.3391 21.8628 12.7286 20.8538 13.8716C19.8448 15.0146 18.5516 15.8705 17.1052 16.3527L17.1051 16.3527L15.3161 16.9487C15.0111 17.0503 14.676 16.9991 14.4152 16.8112C14.1545 16.6232 14 16.3214 14 16V13.4142L8.29289 7.70711C7.90237 7.31658 7.90237 6.68342 8.29289 6.29289L12.2929 2.29289ZM20.7554 10H19C18.7348 10 18.4804 9.89464 18.2929 9.70711L13 4.41421L10.4142 7L15.7071 12.2929C15.8946 12.4804 16 12.7348 16 13V14.6128L16.4728 14.4553C16.4728 14.4553 16.4729 14.4553 16.4729 14.4553C17.5848 14.0846 18.5788 13.4266 19.3544 12.548C20.0052 11.8107 20.4828 10.9401 20.7554 10Z" fill="#1E2B3C"/>
</svg>
