<svg width="24" height="24" viewBox="0 0 24 24" fill="none" xmlns="http://www.w3.org/2000/svg">
<g clip-path="url(#clip0_575_4644)">
<path fill-rule="evenodd" clip-rule="evenodd" d="M9.76841 20.135C10.2461 19.8579 10.8581 20.0205 11.1352 20.4982C11.2231 20.6497 11.3493 20.7755 11.5011 20.863C11.6529 20.9504 11.825 20.9964 12.0002 20.9964C12.1754 20.9964 12.3475 20.9504 12.4993 20.863C12.6511 20.7755 12.7773 20.6497 12.8652 20.4982C13.1423 20.0205 13.7542 19.8579 14.232 20.135C14.7097 20.4121 14.8723 21.024 14.5952 21.5018C14.3315 21.9564 13.9529 22.3337 13.4975 22.596C13.0421 22.8584 12.5258 22.9964 12.0002 22.9964C11.4746 22.9964 10.9583 22.8584 10.5028 22.596C10.0474 22.3337 9.6689 21.9564 9.40518 21.5018C9.12806 21.024 9.29069 20.4121 9.76841 20.135Z" fill="#1E2B3C"/>
<path fill-rule="evenodd" clip-rule="evenodd" d="M18.0158 7.00013C18.568 7.00895 19.0085 7.46377 18.9997 8.01598C18.9742 9.60967 19.1745 11.1989 19.5945 12.7365C19.74 13.2693 19.4261 13.8191 18.8933 13.9647C18.3606 14.1102 17.8107 13.7963 17.6652 13.2635C17.1954 11.5439 16.9715 9.76643 17 7.98403C17.0088 7.43181 17.4636 6.99131 18.0158 7.00013Z" fill="#1E2B3C"/>
<path fill-rule="evenodd" clip-rule="evenodd" d="M6.55465 5.30438C7.08243 5.46707 7.3784 6.02681 7.21571 6.55459C7.07162 7.02202 6.99892 7.50852 7.00007 7.99766L7.00008 8.00001C7.00008 11.6474 6.21715 14.0654 5.37797 15.6039C5.30188 15.7434 5.22549 15.8753 5.1494 16H17.0001C17.5524 16 18.0001 16.4477 18.0001 17C18.0001 17.5523 17.5524 18 17.0001 18H3.00008C2.55941 18 2.17068 17.7116 2.04299 17.2898C1.91664 16.8725 2.07528 16.4221 2.43377 16.1758C2.43447 16.1753 2.43542 16.1746 2.43663 16.1737C2.44432 16.168 2.46218 16.1544 2.4888 16.1322C2.54202 16.0878 2.6304 16.0091 2.74288 15.8904C2.9673 15.6535 3.29039 15.2544 3.62218 14.6462C4.28294 13.4348 4.99992 11.3531 5.00008 8.00109M2.44388 16.169C2.44395 16.1689 2.44403 16.1689 2.44411 16.1688C2.44411 16.1688 2.4441 16.1688 2.4441 16.1688L2.44388 16.169Z" fill="#1E2B3C"/>
<path fill-rule="evenodd" clip-rule="evenodd" d="M11.6627 0.999221C12.9294 0.938119 14.1888 1.22224 15.3065 1.82122C16.4242 2.42021 17.3582 3.31157 18.0087 4.40008C18.6593 5.4886 19.0019 6.73338 19 8.00148C18.9992 8.55376 18.5508 9.00081 17.9985 8.99999C17.4463 8.99917 16.9992 8.55079 17 7.99851C17.0014 7.09273 16.7566 6.2036 16.292 5.42608C15.8273 4.64857 15.1602 4.01189 14.3618 3.58404C13.5634 3.15619 12.6638 2.95325 11.7591 2.9969C10.8544 3.04054 9.9785 3.32913 9.22503 3.83184C8.76561 4.13836 8.1447 4.01441 7.83818 3.55499C7.53166 3.09558 7.65561 2.47466 8.11503 2.16814C9.16989 1.46435 10.3961 1.06032 11.6627 0.999221Z" fill="#1E2B3C"/>
<path fill-rule="evenodd" clip-rule="evenodd" d="M0.292893 0.292893C0.683417 -0.0976311 1.31658 -0.0976311 1.70711 0.292893L23.7071 22.2929C24.0976 22.6834 24.0976 23.3166 23.7071 23.7071C23.3166 24.0976 22.6834 24.0976 22.2929 23.7071L0.292893 1.70711C-0.0976311 1.31658 -0.0976311 0.683417 0.292893 0.292893Z" fill="#1E2B3C"/>
</g>
<defs>
<clipPath id="clip0_575_4644">
<rect width="24" height="24" fill="white"/>
</clipPath>
</defs>
</svg>
