<svg width="24" height="24" viewBox="0 0 24 24" fill="none" xmlns="http://www.w3.org/2000/svg">
<path fill-rule="evenodd" clip-rule="evenodd" d="M9.71893 7.07136C10.3865 6.79545 11.1019 6.65373 11.8243 6.6543C12.5467 6.65487 13.2618 6.79771 13.929 7.07467C14.5962 7.35163 15.2022 7.75729 15.7126 8.26848C16.223 8.77967 16.6277 9.38639 16.9036 10.054C17.1796 10.7216 17.3213 11.437 17.3207 12.1594C17.3201 12.8817 17.1773 13.5969 16.9003 14.2641C16.7301 14.6741 16.5113 15.061 16.2493 15.4169C16.2011 15.522 16.1337 15.6205 16.0471 15.7071C16.0127 15.7415 15.9765 15.7728 15.9387 15.8011C15.864 15.8856 15.7865 15.9678 15.7065 16.0477C14.8873 16.8667 13.6311 17.6767 12.2864 18.4165C10.9221 19.167 9.38996 19.8863 7.96236 20.5091C6.53254 21.1329 5.19503 21.6655 4.21561 22.0419C3.72553 22.2303 3.32423 22.3799 3.04477 22.4826C2.90502 22.534 2.79568 22.5737 2.72089 22.6007L2.6351 22.6315L2.6126 22.6395L2.60495 22.6423C2.6048 22.6423 2.60419 22.6425 2.26997 21.7C1.33013 21.3584 1.33017 21.3583 1.33022 21.3582L1.34149 21.3273L1.37336 21.2407C1.40126 21.1651 1.44229 21.0546 1.49535 20.9134C1.60146 20.631 1.75573 20.2255 1.9493 19.7307C2.33616 18.742 2.88134 17.3933 3.51376 15.9565C4.14519 14.522 4.86904 12.9871 5.61386 11.6303C6.3468 10.2951 7.14294 9.05161 7.93342 8.26237C8.44462 7.75198 9.05133 7.34728 9.71893 7.07136ZM2.26997 21.7L1.33022 21.3582C1.19801 21.7219 1.28749 22.1296 1.5601 22.4044C1.83271 22.6791 2.24016 22.7716 2.60495 22.6423L2.26997 21.7ZM4.00071 19.9802C4.8928 19.6315 5.99756 19.1843 7.16259 18.676C8.55999 18.0663 10.0316 17.3743 11.3223 16.6642C12.3888 16.0775 13.2829 15.5046 13.908 14.9823L12.1729 13.2471C11.7823 12.8566 11.7823 12.2235 12.1729 11.8329C12.5634 11.4424 13.1966 11.4424 13.5871 11.8329L15.1088 13.3546C15.2485 12.9715 15.3204 12.5664 15.3207 12.1578C15.3211 11.6981 15.2309 11.2428 15.0553 10.8179C14.8797 10.393 14.6221 10.0069 14.2973 9.68158C13.9725 9.35626 13.5868 9.09809 13.1622 8.92183C12.7376 8.74557 12.2824 8.65466 11.8227 8.6543C11.363 8.65394 10.9077 8.74413 10.4828 8.91972C10.058 9.09532 9.67185 9.35288 9.34653 9.6777C8.89228 10.1312 8.37205 10.8658 7.82127 11.7952L8.30049 12.2911L9.33136 13.2775C9.73038 13.6594 9.74431 14.2924 9.36247 14.6914C8.98063 15.0904 8.34761 15.1044 7.94859 14.7225L6.9036 13.7225C6.89418 13.7135 6.88494 13.7043 6.87588 13.6949L6.81716 13.6342C6.30217 14.645 5.80177 15.7229 5.34428 16.7622C4.82263 17.9474 4.36063 19.0737 4.00071 19.9802Z" fill="#1E2B3C"/>
<path fill-rule="evenodd" clip-rule="evenodd" d="M15.5368 7.19857C16.2309 6.68057 17.3329 6 18.4999 6C19.9021 6 20.9963 6.64581 21.7015 7.22982C22.0585 7.52552 22.334 7.81987 22.5217 8.0417C22.616 8.15322 22.6895 8.24808 22.7414 8.31792C22.7673 8.35289 22.788 8.38174 22.8032 8.40344L22.822 8.43054L22.8283 8.43987L22.8307 8.44344L22.8317 8.44494C22.8319 8.44526 22.8326 8.44626 21.9999 9C22.8326 9.55374 22.8324 9.55405 22.8321 9.55437L22.8307 9.55656L22.8283 9.56013L22.822 9.56946L22.8032 9.59656C22.788 9.61826 22.7673 9.64711 22.7414 9.68208C22.6895 9.75192 22.616 9.84678 22.5217 9.9583C22.334 10.1801 22.0585 10.4745 21.7015 10.7702C20.9963 11.3542 19.9021 12 18.4999 12C17.0977 12 16.0035 11.3542 15.2983 10.7702C14.9412 10.4745 14.6657 10.1801 14.4781 9.9583C14.3838 9.84678 14.3102 9.75192 14.2584 9.68208C14.2324 9.64711 14.2118 9.61826 14.1966 9.59656L14.1778 9.56946L14.1715 9.56013L14.1691 9.55656L14.1681 9.55506C14.1679 9.55474 14.1672 9.55374 14.9999 9C14.2676 8.31899 14.2678 8.31882 14.2679 8.31865L14.2691 8.31736L14.2713 8.31499L14.2778 8.30811L14.2988 8.28601C14.3163 8.26771 14.3409 8.24238 14.3718 8.21103C14.4338 8.1484 14.5219 8.06134 14.6322 7.95796C14.8516 7.75228 15.1643 7.47654 15.5368 7.19857ZM14.9999 9L14.2679 8.31865C13.9528 8.65745 13.911 9.16848 14.1672 9.55374L14.9999 9ZM16.3921 9.0706C16.4489 9.12313 16.5096 9.17652 16.574 9.22982C17.0763 9.64581 17.7321 10 18.4999 10C19.2677 10 19.9235 9.64581 20.4258 9.22982C20.5193 9.15243 20.6049 9.07485 20.6824 9C20.6049 8.92515 20.5193 8.84757 20.4258 8.77018C19.9235 8.35419 19.2677 8 18.4999 8C18.0269 8 17.3788 8.31943 16.733 8.80143C16.6115 8.89208 16.4972 8.9831 16.3921 9.0706ZM21.9999 9L22.8321 9.55437C23.0552 9.21892 23.0557 8.78172 22.8326 8.44626L21.9999 9Z" fill="#1E2B3C"/>
<path fill-rule="evenodd" clip-rule="evenodd" d="M15.5537 1.16731L15 2L14.4463 1.16731C14.7817 0.94423 15.2183 0.94423 15.5537 1.16731ZM15 9C14.4463 9.83269 14.4459 9.83248 14.4456 9.83227L14.4434 9.83081L14.4399 9.82841L14.4305 9.82208L14.4034 9.80332C14.3817 9.78811 14.3529 9.76746 14.3179 9.74149C14.2481 9.68963 14.1532 9.61611 14.0417 9.52179C13.8199 9.33416 13.5255 9.05864 13.2298 8.70158C12.6458 7.99639 12 6.9022 12 5.5C12 4.0978 12.6458 3.00361 13.2298 2.29842C13.5255 1.94136 13.8199 1.66584 14.0417 1.47821C14.1532 1.38389 14.2481 1.31037 14.3179 1.25851C14.3529 1.23254 14.3817 1.2119 14.4034 1.19668L14.4305 1.17792L14.4399 1.17159L14.4434 1.16919L14.4449 1.16819C14.4453 1.16797 14.4463 1.16731 15 2C15.5537 1.16731 15.5534 1.1671 15.5537 1.16731L15.5551 1.16819L15.5566 1.16919L15.5601 1.17159L15.5695 1.17792L15.5966 1.19668C15.6183 1.2119 15.6471 1.23254 15.6821 1.25851C15.7519 1.31037 15.8468 1.38389 15.9583 1.47821C16.1801 1.66584 16.4745 1.94136 16.7702 2.29842C17.3542 3.00361 18 4.0978 18 5.5C18 6.6761 17.3208 7.77726 16.8004 8.47202C16.5218 8.84387 16.2455 9.15518 16.0394 9.37335C15.9357 9.48302 15.8484 9.57063 15.7856 9.63216C15.7542 9.66297 15.7287 9.68734 15.7103 9.70478L15.6881 9.72571L15.6811 9.73218L15.6787 9.7344L15.6778 9.73525C15.6776 9.73541 15.6771 9.73593 15 9ZM15 9L14.4456 9.83227C14.8292 10.0873 15.338 10.0478 15.6771 9.73593L15 9ZM14.9319 7.61052C15.019 7.50654 15.1095 7.39334 15.1996 7.27298C15.6792 6.63274 16 5.9839 16 5.5C16 4.7322 15.6458 4.07639 15.2298 3.57408C15.1524 3.48063 15.0749 3.39495 15 3.31751C14.9251 3.39495 14.8476 3.48063 14.7702 3.57408C14.3542 4.07639 14 4.7322 14 5.5C14 6.2678 14.3542 6.92361 14.7702 7.42592C14.8243 7.49131 14.8786 7.5529 14.9319 7.61052Z" fill="#1E2B3C"/>
</svg>
