<svg width="24" height="24" viewBox="0 0 24 24" fill="none" xmlns="http://www.w3.org/2000/svg">
<g clip-path="url(#clip0_575_4539)">
<path fill-rule="evenodd" clip-rule="evenodd" d="M8.08827 1.04655C9.50715 0.902065 10.9401 1.09686 12.2689 1.61487C13.5977 2.13288 14.7844 2.95928 15.7311 4.02595C16.5039 4.89662 17.0987 5.90703 17.4852 6.99996H18.0071C19.3842 7.00158 20.7189 7.47691 21.7871 8.34616C22.8553 9.21541 23.5919 10.4257 23.8734 11.7738C24.1548 13.1219 23.9639 14.5258 23.3328 15.7498C22.7016 16.9738 21.6686 17.9435 20.4071 18.496C19.9012 18.7175 19.3115 18.487 19.0899 17.9811C18.8683 17.4752 19.0988 16.8855 19.6047 16.664C20.4457 16.2956 21.1344 15.6492 21.5552 14.8332C21.976 14.0172 22.1032 13.0812 21.9156 12.1825C21.728 11.2838 21.2369 10.4769 20.5248 9.89742C19.8127 9.31801 18.9231 9.00113 18.0051 8.99996C18.005 8.99996 18.0052 8.99996 18.0051 8.99996H16.7459C16.2899 8.99996 15.8917 8.69149 15.7777 8.24999C15.5003 7.17595 14.9717 6.1832 14.2353 5.35357C13.499 4.52394 12.576 3.88119 11.5425 3.47829C10.5089 3.07539 9.39445 2.92388 8.29088 3.03626C7.18731 3.14863 6.12624 3.52167 5.19514 4.12462C4.26404 4.72757 3.48956 5.54317 2.93555 6.50419C2.38153 7.46521 2.06384 8.54414 2.00867 9.65205C1.95349 10.76 2.1624 11.8651 2.61818 12.8764C3.07397 13.8877 3.76357 14.7763 4.63016 15.4687C5.06161 15.8135 5.13188 16.4428 4.78711 16.8742C4.44234 17.3057 3.81308 17.3759 3.38163 17.0312C2.26745 16.1408 1.38082 14.9985 0.794809 13.6982C0.208801 12.3979 -0.0598009 10.977 0.0111423 9.55257C0.0820855 8.12812 0.490543 6.74092 1.20285 5.50532C1.91515 4.26972 2.91091 3.22109 4.10804 2.44586C5.30517 1.67064 6.66939 1.19103 8.08827 1.04655Z" fill="#1E2B3C"/>
<path fill-rule="evenodd" clip-rule="evenodd" d="M7 16C7 15.4477 7.44772 15 8 15H8.01C8.56229 15 9.01 15.4477 9.01 16C9.01 16.5523 8.56229 17 8.01 17H8C7.44772 17 7 16.5523 7 16Z" fill="#1E2B3C"/>
<path fill-rule="evenodd" clip-rule="evenodd" d="M7 20C7 19.4477 7.44772 19 8 19H8.01C8.56229 19 9.01 19.4477 9.01 20C9.01 20.5523 8.56229 21 8.01 21H8C7.44772 21 7 20.5523 7 20Z" fill="#1E2B3C"/>
<path fill-rule="evenodd" clip-rule="evenodd" d="M11 18C11 17.4477 11.4477 17 12 17H12.01C12.5623 17 13.01 17.4477 13.01 18C13.01 18.5523 12.5623 19 12.01 19H12C11.4477 19 11 18.5523 11 18Z" fill="#1E2B3C"/>
<path fill-rule="evenodd" clip-rule="evenodd" d="M11 22C11 21.4477 11.4477 21 12 21H12.01C12.5623 21 13.01 21.4477 13.01 22C13.01 22.5523 12.5623 23 12.01 23H12C11.4477 23 11 22.5523 11 22Z" fill="#1E2B3C"/>
<path fill-rule="evenodd" clip-rule="evenodd" d="M15 16C15 15.4477 15.4477 15 16 15H16.01C16.5623 15 17.01 15.4477 17.01 16C17.01 16.5523 16.5623 17 16.01 17H16C15.4477 17 15 16.5523 15 16Z" fill="#1E2B3C"/>
<path fill-rule="evenodd" clip-rule="evenodd" d="M15 20C15 19.4477 15.4477 19 16 19H16.01C16.5623 19 17.01 19.4477 17.01 20C17.01 20.5523 16.5623 21 16.01 21H16C15.4477 21 15 20.5523 15 20Z" fill="#1E2B3C"/>
</g>
<defs>
<clipPath id="clip0_575_4539">
<rect width="24" height="24" fill="white"/>
</clipPath>
</defs>
</svg>
