<svg width="24" height="24" viewBox="0 0 24 24" fill="none" xmlns="http://www.w3.org/2000/svg">
<g clip-path="url(#clip0_575_4555)">
<path fill-rule="evenodd" clip-rule="evenodd" d="M7.52063 0.12249C8.99018 -0.121838 10.4974 0.00260395 11.907 0.484644C13.3166 0.966683 14.5844 1.79123 15.5966 2.88426C16.4307 3.78499 17.0698 4.84482 17.4773 5.99704H17.9974C19.4844 5.9958 20.9188 6.54698 22.0224 7.54366C23.1262 8.54056 23.8201 9.91203 23.9696 11.3918C24.1191 12.8716 23.7134 14.3542 22.8313 15.5517C21.9491 16.7492 20.6535 17.5762 19.1959 17.8722C18.6547 17.9821 18.1268 17.6324 18.0169 17.0912C17.907 16.5499 18.2567 16.0221 18.7979 15.9122C19.7695 15.7149 20.633 15.1637 21.221 14.3655C21.809 13.5673 22.0794 12.5792 21.9797 11.5928C21.8801 10.6065 21.4176 9.69237 20.6818 9.02791C19.9461 8.36344 18.9898 7.99605 17.9984 7.99704L16.738 7.99704C16.2821 7.99704 15.8839 7.6886 15.7698 7.24713C15.4801 6.12541 14.9163 5.09321 14.1292 4.24318C13.342 3.39315 12.356 2.75192 11.2598 2.37705C10.1636 2.00217 8.99149 1.9054 7.84865 2.09541C6.70581 2.28542 5.62804 2.75626 4.71211 3.46568C3.79618 4.17509 3.07076 5.10085 2.60099 6.15986C2.13121 7.21887 1.93177 8.37796 2.02059 9.53308C2.10941 10.6882 2.4837 11.8032 3.10985 12.7779C3.73601 13.7527 4.59442 14.5567 5.60804 15.1177C6.09124 15.3852 6.26614 15.9937 5.99868 16.4769C5.73122 16.9601 5.12269 17.135 4.63949 16.8675C3.33611 16.1461 2.23229 15.1123 1.42713 13.8589C0.621974 12.6055 0.140686 11.1718 0.0264777 9.68641C-0.0877305 8.20107 0.168716 6.71062 0.772792 5.34887C1.37687 3.98712 2.30967 2.7967 3.48744 1.88448C4.66521 0.972269 6.05108 0.366819 7.52063 0.12249Z" fill="#1E2B3C"/>
<path fill-rule="evenodd" clip-rule="evenodd" d="M13.5547 10.1679C14.0142 10.4743 14.1384 11.0952 13.8321 11.5547L10.8685 16H15C15.3688 16 15.7077 16.203 15.8817 16.5281C16.0557 16.8533 16.0366 17.2478 15.8321 17.5547L11.8321 23.5547C11.5257 24.0142 10.9048 24.1384 10.4453 23.832C9.98577 23.5257 9.8616 22.9048 10.168 22.4453L13.1315 18H9C8.63121 18 8.29235 17.797 8.11833 17.4718C7.94431 17.1467 7.96338 16.7521 8.16795 16.4453L12.168 10.4453C12.4743 9.98576 13.0952 9.86158 13.5547 10.1679Z" fill="#1E2B3C"/>
</g>
<defs>
<clipPath id="clip0_575_4555">
<rect width="24" height="24" fill="white"/>
</clipPath>
</defs>
</svg>
