<svg width="24" height="24" viewBox="0 0 24 24" fill="none" xmlns="http://www.w3.org/2000/svg">
<g clip-path="url(#clip0_575_4552)">
<path fill-rule="evenodd" clip-rule="evenodd" d="M8.76906 3.91201C8.81765 3.36187 9.30303 2.95528 9.85317 3.00388C11.7017 3.16716 13.4538 3.90094 14.867 5.10369C16.0797 6.13574 16.9914 7.46931 17.5143 8.96345H18.0246C18.0501 8.96345 18.0757 8.96443 18.1012 8.96639C18.3809 8.9879 18.8331 9.04439 19.3184 9.14875C19.7915 9.2505 20.3669 9.4124 20.8502 9.67141C21.7196 10.1373 22.4599 10.8113 23.0051 11.6333C23.5503 12.4552 23.8833 13.3994 23.9745 14.3815C24.0656 15.3636 23.912 16.3529 23.5273 17.2611C23.3119 17.7697 22.725 18.0073 22.2165 17.7919C21.7079 17.5765 21.4703 16.9897 21.6857 16.4811C21.9415 15.8772 22.0436 15.2193 21.983 14.5663C21.9224 13.9132 21.701 13.2853 21.3384 12.7388C20.9759 12.1922 20.4836 11.744 19.9055 11.4342C19.6651 11.3054 19.3016 11.1909 18.8979 11.104C18.5292 11.0247 18.1862 10.9809 17.9839 10.9635H16.7722C16.3147 10.9635 15.9156 10.653 15.803 10.2096C15.4483 8.81279 14.6683 7.56078 13.5708 6.62677C12.4733 5.69275 11.1127 5.12292 9.67719 4.99612C9.12705 4.94753 8.72046 4.46215 8.76906 3.91201ZM5.97888 4.51002C6.24612 4.99334 6.07096 5.60179 5.58764 5.86904C4.23047 6.61946 3.16322 7.80217 2.55566 9.22903C1.9481 10.6559 1.83513 12.2449 2.23471 13.7434C2.6343 15.2418 3.5235 16.5636 4.76085 17.4985C5.99821 18.4334 7.51265 18.9277 9.06327 18.9027L9.07938 18.9025L18.0234 18.9025C18.0236 18.9025 18.0231 18.9025 18.0234 18.9025C18.4834 18.9019 18.9406 18.8213 19.373 18.6644C19.8922 18.4759 20.4658 18.744 20.6542 19.2632C20.8426 19.7823 20.5745 20.3559 20.0554 20.5444C19.4047 20.7805 18.7179 20.9017 18.0257 20.9025H9.08721C7.09334 20.9328 5.14636 20.2965 3.5552 19.0943C1.96184 17.8904 0.816801 16.1883 0.302244 14.2587C-0.212313 12.3291 -0.0668381 10.2829 0.715527 8.44549C1.49789 6.60811 2.87221 5.08511 4.61986 4.11878C5.10318 3.85154 5.71163 4.0267 5.97888 4.51002Z" fill="#1E2B3C"/>
<path fill-rule="evenodd" clip-rule="evenodd" d="M0.292893 0.292893C0.683417 -0.0976311 1.31658 -0.0976311 1.70711 0.292893L23.7071 22.2929C24.0976 22.6834 24.0976 23.3166 23.7071 23.7071C23.3166 24.0976 22.6834 24.0976 22.2929 23.7071L0.292893 1.70711C-0.0976311 1.31658 -0.0976311 0.683417 0.292893 0.292893Z" fill="#1E2B3C"/>
</g>
<defs>
<clipPath id="clip0_575_4552">
<rect width="24" height="24" fill="white"/>
</clipPath>
</defs>
</svg>
