<svg width="24" height="24" viewBox="0 0 24 24" fill="none" xmlns="http://www.w3.org/2000/svg">
<path fill-rule="evenodd" clip-rule="evenodd" d="M1.54116 3.11158C1.95321 2.89874 2.45753 2.99713 2.75936 3.34926L7.83588 9.27187L11.1319 3.50391C11.3099 3.19234 11.6412 3.00005 12.0001 3.00005C12.359 3.00005 12.6903 3.19234 12.8683 3.50391L16.1643 9.27187L21.2408 3.34926C21.5427 2.99713 22.047 2.89874 22.459 3.11158C22.8711 3.32443 23.0827 3.79266 22.9702 4.24259L19.9702 16.2426C19.859 16.6878 19.459 17.0001 19.0001 17.0001H5.0001C4.54123 17.0001 4.14125 16.6878 4.02996 16.2426L1.02996 4.24259C0.917475 3.79266 1.12911 3.32443 1.54116 3.11158ZM3.99764 7.8671L5.78088 15.0001H18.2193L20.0026 7.8671L16.7594 11.6508C16.5477 11.8978 16.2292 12.0263 15.9055 11.9956C15.5818 11.9648 15.2932 11.7785 15.1319 11.4962L12.0001 6.01562L8.86834 11.4962C8.707 11.7785 8.41844 11.9648 8.0947 11.9956C7.77096 12.0263 7.45248 11.8978 7.24084 11.6508L3.99764 7.8671ZM4.0001 20C4.0001 19.4478 4.44782 19 5.0001 19H19.0001C19.5524 19 20.0001 19.4478 20.0001 20C20.0001 20.5523 19.5524 21 19.0001 21H5.0001C4.44782 21 4.0001 20.5523 4.0001 20Z" fill="#1E2B3C"/>
</svg>
