<svg width="24" height="24" viewBox="0 0 24 24" fill="none" xmlns="http://www.w3.org/2000/svg">
<g clip-path="url(#clip0_575_4424)">
<path fill-rule="evenodd" clip-rule="evenodd" d="M7.29289 16.2929C7.68342 15.9024 8.31658 15.9024 8.70711 16.2929L12 19.5858L15.2929 16.2929C15.6834 15.9024 16.3166 15.9024 16.7071 16.2929C17.0976 16.6834 17.0976 17.3166 16.7071 17.7071L12.7071 21.7071C12.3166 22.0976 11.6834 22.0976 11.2929 21.7071L7.29289 17.7071C6.90237 17.3166 6.90237 16.6834 7.29289 16.2929Z" fill="#1E2B3C"/>
<path fill-rule="evenodd" clip-rule="evenodd" d="M12 11C12.5523 11 13 11.4477 13 12V21C13 21.5523 12.5523 22 12 22C11.4477 22 11 21.5523 11 21V12C11 11.4477 11.4477 11 12 11Z" fill="#1E2B3C"/>
<path fill-rule="evenodd" clip-rule="evenodd" d="M8.67204 2.00581C10.0318 1.95691 11.385 2.21712 12.6296 2.76686C13.8743 3.31659 14.978 4.14152 15.8577 5.17954C16.5678 6.01736 17.1169 6.97638 17.4802 8.00814L17.9982 8.00814C19.2727 8.00731 20.5151 8.41253 21.5438 9.16505C22.5726 9.91771 23.3349 10.9786 23.7199 12.1939C24.1049 13.4091 24.0927 14.7154 23.685 15.9233C23.2773 17.1311 22.4953 18.1775 21.4525 18.9108C21.0008 19.2285 20.377 19.1198 20.0593 18.668C19.7416 18.2163 19.8503 17.5925 20.3021 17.2748C20.9971 16.7861 21.5183 16.0886 21.7901 15.2836C22.0618 14.4786 22.0699 13.6079 21.8133 12.798C21.5567 11.988 21.0487 11.2809 20.3629 10.7792C19.6772 10.2776 18.8494 10.0075 17.9998 10.0081H16.7398C16.2832 10.0081 15.8846 9.69891 15.7711 9.25668C15.5081 8.23175 15.0161 7.27984 14.332 6.47261C13.6478 5.66538 12.7895 5.02386 11.8216 4.59636C10.8537 4.16885 9.80136 3.96649 8.74392 4.00452C7.68647 4.04255 6.65143 4.31997 5.71672 4.8159C4.782 5.31183 3.97197 6.01334 3.34761 6.86763C2.72324 7.72191 2.30081 8.70671 2.11212 9.74788C1.92343 10.7891 1.9734 11.8595 2.25826 12.8785C2.54311 13.8976 3.05544 14.8388 3.75667 15.6312C4.12267 16.0448 4.08409 16.6767 3.6705 17.0428C3.2569 17.4088 2.62491 17.3702 2.25891 16.9566C1.3572 15.9376 0.698392 14.7274 0.332091 13.4169C-0.0342089 12.1065 -0.098458 10.7301 0.14418 9.39123C0.386819 8.05239 0.930022 6.78603 1.7329 5.6875C2.53577 4.58897 3.57739 3.68689 4.77935 3.04917C5.9813 2.41145 7.31227 2.05471 8.67204 2.00581Z" fill="#1E2B3C"/>
</g>
<defs>
<clipPath id="clip0_575_4424">
<rect width="24" height="24" fill="white"/>
</clipPath>
</defs>
</svg>
