<svg width="24" height="24" viewBox="0 0 24 24" fill="none" xmlns="http://www.w3.org/2000/svg">
<path fill-rule="evenodd" clip-rule="evenodd" d="M12 3C7.02944 3 3 7.02944 3 12C3 16.9706 7.02944 21 12 21C16.9706 21 21 16.9706 21 12C21 7.02944 16.9706 3 12 3ZM1 12C1 5.92487 5.92487 1 12 1C18.0751 1 23 5.92487 23 12C23 18.0751 18.0751 23 12 23C5.92487 23 1 18.0751 1 12Z" fill="#1E2B3C"/>
<path fill-rule="evenodd" clip-rule="evenodd" d="M7.97319 1.94029C8.42039 1.6162 9.04564 1.716 9.36973 2.1632C10.9657 4.36547 12.2184 6.24094 13.2629 8.14438C15.2845 7.29933 16.9484 6.10249 18.37 4.44008C18.729 4.02035 19.3602 3.97107 19.7799 4.33001C20.1997 4.68896 20.2489 5.3202 19.89 5.73994C18.2648 7.64033 16.3785 8.98721 14.1766 9.92984C14.2416 10.0665 14.3057 10.2038 14.369 10.3419C14.5185 10.6681 14.6636 10.9981 14.8047 11.3336C16.9246 11.0285 19.3861 11.1772 22.0068 11.8735C22.5406 12.0154 22.8583 12.5631 22.7165 13.0968C22.5746 13.6306 22.027 13.9483 21.4932 13.8065C19.2866 13.2201 17.2671 13.0754 15.5511 13.256C16.2624 15.2421 16.8951 17.481 17.5619 20.2346C17.6919 20.7714 17.3621 21.3119 16.8254 21.4419C16.2886 21.5719 15.7481 21.2421 15.6181 20.7054C14.9267 17.8504 14.2839 15.6047 13.5648 13.645C13.4213 13.6881 13.2813 13.7339 13.1449 13.7823C10.8167 14.6128 8.53899 16.3877 6.18835 19.7347C5.87093 20.1867 5.24723 20.2958 4.79527 19.9784C4.34332 19.6609 4.23425 19.0372 4.55166 18.5853C7.06069 15.0128 9.64263 12.9078 12.4741 11.8981L12.4755 11.8976C12.5891 11.8573 12.7044 11.8185 12.8213 11.7815C12.7327 11.5774 12.6427 11.3756 12.551 11.1756C12.4653 10.9886 12.378 10.803 12.2889 10.6184C9.45137 11.4911 6.14378 11.8471 2.27393 11.9397C1.7218 11.9529 1.2635 11.5161 1.25029 10.9639C1.23708 10.4118 1.67396 9.95351 2.22608 9.9403C5.85865 9.85337 8.84556 9.52968 11.3462 8.81228C10.3903 7.10982 9.23625 5.38725 7.75028 3.33682C7.4262 2.88963 7.526 2.26438 7.97319 1.94029Z" fill="#1E2B3C"/>
</svg>
