<svg width="24" height="24" viewBox="0 0 24 24" fill="none" xmlns="http://www.w3.org/2000/svg">
<path fill-rule="evenodd" clip-rule="evenodd" d="M4.50361 1.57152C5.25949 1.26917 6.38728 1 8 1C9.69345 1 11.0967 1.56148 12.3157 2.04923C12.3343 2.05668 12.3529 2.06411 12.3714 2.07152C13.6395 2.57876 14.7193 3 16 3C17.3015 3 18.1786 2.77168 18.7046 2.56767C18.9688 2.46519 19.1485 2.3673 19.252 2.30379C19.3039 2.27197 19.337 2.2486 19.3523 2.23735C19.3561 2.23458 19.3588 2.23254 19.3604 2.23129C19.6555 1.98573 20.0658 1.93047 20.4159 2.09061C20.7718 2.25336 21 2.60871 21 3V15C21 15.2925 20.872 15.5703 20.6496 15.7603L20 15C20.6496 15.7603 20.6492 15.7606 20.6487 15.761L20.6478 15.7618L20.6459 15.7635L20.6416 15.767L20.6318 15.7752C20.6273 15.7789 20.6223 15.7829 20.6169 15.7873C20.6136 15.79 20.6101 15.7927 20.6064 15.7956C20.587 15.811 20.5626 15.8296 20.5331 15.8512C20.474 15.8943 20.3943 15.9487 20.2931 16.0103C20.0905 16.1337 19.8026 16.2854 19.4219 16.4327C18.6581 16.7281 17.5356 17 16 17C14.3066 17 12.9033 16.4385 11.6843 15.9508L11.6286 15.9285C10.3605 15.4212 9.28069 15 8 15C6.88455 15 6.0005 15.223 5.40424 15.4398C5.10605 15.5482 4.88076 15.6548 4.736 15.7303C4.6637 15.7681 4.61176 15.7979 4.58114 15.8161C4.56584 15.8252 4.55591 15.8314 4.55145 15.8343L4.55246 15.8335L4.55352 15.8328C4.55196 15.8339 4.55098 15.8345 4.54942 15.8355C4.24333 16.0368 3.85144 16.0547 3.52814 15.8817C3.20298 15.7077 3 15.3688 3 15V3C3 2.73478 3.10536 2.48043 3.29289 2.29289L4 3C3.29289 2.29289 3.29342 2.29237 3.29394 2.29185L3.29502 2.29078L3.29724 2.28857L3.302 2.2839L3.31275 2.27352C3.32047 2.26616 3.32931 2.2579 3.33929 2.24883C3.35926 2.23068 3.38378 2.20926 3.41312 2.1851C3.47183 2.13675 3.54962 2.07757 3.64842 2.0117C3.8464 1.87972 4.12656 1.72234 4.50361 1.57152ZM5 3.53805V13.464C5.75731 13.2175 6.77322 13 8 13C9.69345 13 11.0967 13.5615 12.3157 14.0492L12.3714 14.0715C13.6395 14.5788 14.7193 15 16 15C17.2941 15 18.1716 14.7719 18.7004 14.5673C18.816 14.5226 18.9156 14.4788 19 14.4382V4.58221C18.2644 4.81404 17.2755 5 16 5C14.3066 5 12.9033 4.43852 11.6843 3.95077C11.6657 3.94332 11.6471 3.93589 11.6286 3.92848C10.3605 3.42124 9.28069 3 8 3C6.61272 3 5.74051 3.23083 5.24639 3.42848C5.15123 3.46654 5.06941 3.50364 5 3.53805ZM4.54942 15.8355C4.54987 15.8353 4.55055 15.8348 4.55145 15.8343L4.54942 15.8355C4.54915 15.8357 4.54953 15.8355 4.54942 15.8355Z" fill="#1E2B3C"/>
<path fill-rule="evenodd" clip-rule="evenodd" d="M4 14C4.55228 14 5 14.4477 5 15V22C5 22.5523 4.55228 23 4 23C3.44772 23 3 22.5523 3 22V15C3 14.4477 3.44772 14 4 14Z" fill="#1E2B3C"/>
</svg>
