<svg width="24" height="24" viewBox="0 0 24 24" fill="none" xmlns="http://www.w3.org/2000/svg">
<path fill-rule="evenodd" clip-rule="evenodd" d="M12 3C7.02944 3 3 7.02944 3 12C3 16.9706 7.02944 21 12 21C16.9706 21 21 16.9706 21 12C21 7.02944 16.9706 3 12 3ZM1 12C1 5.92487 5.92487 1 12 1C18.0751 1 23 5.92487 23 12C23 18.0751 18.0751 23 12 23C5.92487 23 1 18.0751 1 12Z" fill="#1E2B3C"/>
<path fill-rule="evenodd" clip-rule="evenodd" d="M8.47453 14.1913C9.27247 13.6109 10.4747 13 12.0002 13C13.5257 13 14.7279 13.6109 15.5259 14.1913C15.9268 14.4828 16.2367 14.7743 16.4488 14.9956C16.5552 15.1067 16.6382 15.2013 16.6968 15.2712C16.7262 15.3062 16.7496 15.3351 16.7668 15.3568L16.7881 15.3841L16.7953 15.3935L16.798 15.3971L16.7992 15.3987L16.7997 15.3994C16.8 15.3997 16.8002 15.4 16.0151 15.9888L16.8002 15.4C17.1316 15.8418 17.042 16.4686 16.6002 16.8C16.1598 17.1303 15.5355 17.0424 15.2033 16.6042L15.2029 16.6036L15.1987 16.5982C15.1928 16.5907 15.1814 16.5766 15.1649 16.5569C15.1317 16.5174 15.078 16.4558 15.0048 16.3794C14.8575 16.2257 14.6361 16.0172 14.3495 15.8087C13.7725 15.3891 12.9747 15 12.0002 15C11.0257 15 10.2279 15.3891 9.65088 15.8087C9.36427 16.0172 9.14293 16.2257 8.99563 16.3794C8.92239 16.4558 8.86867 16.5174 8.83552 16.5569C8.81897 16.5766 8.80766 16.5907 8.80171 16.5982M8.00021 16C7.20021 15.4 7.20045 15.3997 7.20069 15.3994L7.20122 15.3987L7.20237 15.3971L7.20511 15.3935L7.21232 15.3841L7.23362 15.3568C7.25086 15.3351 7.27421 15.3062 7.30357 15.2712C7.36221 15.2013 7.4452 15.1067 7.55165 14.9956C7.76373 14.7743 8.07364 14.4828 8.47453 14.1913" fill="#1E2B3C"/>
<path fill-rule="evenodd" clip-rule="evenodd" d="M8 9C8 8.44772 8.44772 8 9 8H9.01C9.56228 8 10.01 8.44772 10.01 9C10.01 9.55228 9.56228 10 9.01 10H9C8.44772 10 8 9.55228 8 9Z" fill="#1E2B3C"/>
<path fill-rule="evenodd" clip-rule="evenodd" d="M14 9C14 8.44772 14.4477 8 15 8H15.01C15.5623 8 16.01 8.44772 16.01 9C16.01 9.55228 15.5623 10 15.01 10H15C14.4477 10 14 9.55228 14 9Z" fill="#1E2B3C"/>
</svg>
