<svg width="24" height="24" viewBox="0 0 24 24" fill="none" xmlns="http://www.w3.org/2000/svg">
<path fill-rule="evenodd" clip-rule="evenodd" d="M17 16C16.7348 16 16.4804 16.1054 16.2929 16.2929C16.1054 16.4804 16 16.7348 16 17V21C16 21.5523 15.5523 22 15 22C14.4477 22 14 21.5523 14 21V17C14 16.2043 14.3161 15.4413 14.8787 14.8787C15.4413 14.3161 16.2043 14 17 14H21C21.5523 14 22 14.4477 22 15C22 15.5523 21.5523 16 21 16H17Z" fill="#1E2B3C"/>
<path fill-rule="evenodd" clip-rule="evenodd" d="M7 3C7.55228 3 8 3.44772 8 4V5.81144C8.15323 6.1591 8.40284 6.45699 8.72072 6.66891C9.08145 6.90939 9.51054 7.02615 9.94337 7.0016L10 8V7C10.7957 7 11.5587 7.31607 12.1213 7.87868C12.6839 8.44129 13 9.20435 13 10C13 10.2652 13.1054 10.5196 13.2929 10.7071C13.4804 10.8946 13.7348 11 14 11C14.2652 11 14.5196 10.8946 14.7071 10.7071C14.8946 10.5196 15 10.2652 15 10C15 9.20435 15.3161 8.44129 15.8787 7.87868C16.4413 7.31607 17.2043 7 18 7H21C21.5523 7 22 7.44772 22 8C22 8.55228 21.5523 9 21 9H18C17.7348 9 17.4804 9.10536 17.2929 9.29289C17.1054 9.48043 17 9.73478 17 10C17 10.7957 16.6839 11.5587 16.1213 12.1213C15.5587 12.6839 14.7957 13 14 13C13.2043 13 12.4413 12.6839 11.8787 12.1213C11.3161 11.5587 11 10.7957 11 10C11 9.73478 10.8946 9.48043 10.7071 9.29289C10.5247 9.11044 10.2789 9.00577 10.0215 9.00023C9.16778 9.04114 8.32301 8.80747 7.61132 8.33301C6.88988 7.85205 6.34426 7.1497 6.05663 6.33173C6.01915 6.22515 6 6.11298 6 6V4C6 3.44772 6.44772 3 7 3Z" fill="#1E2B3C"/>
<path fill-rule="evenodd" clip-rule="evenodd" d="M2 11C2 10.4477 2.44772 10 3 10H5C5.79565 10 6.55871 10.3161 7.12132 10.8787C7.68393 11.4413 8 12.2044 8 13V14C8 14.2652 8.10536 14.5196 8.29289 14.7071C8.48043 14.8946 8.73478 15 9 15C9.79565 15 10.5587 15.3161 11.1213 15.8787C11.6839 16.4413 12 17.2043 12 18V22C12 22.5523 11.5523 23 11 23C10.4477 23 10 22.5523 10 22V18C10 17.7348 9.89464 17.4804 9.70711 17.2929C9.51957 17.1054 9.26522 17 9 17C8.20435 17 7.44129 16.6839 6.87868 16.1213C6.31607 15.5587 6 14.7956 6 14V13C6 12.7348 5.89464 12.4804 5.70711 12.2929C5.51957 12.1054 5.26522 12 5 12H3C2.44772 12 2 11.5523 2 11Z" fill="#1E2B3C"/>
<path fill-rule="evenodd" clip-rule="evenodd" d="M12 3C7.02944 3 3 7.02944 3 12C3 16.9706 7.02944 21 12 21C16.9706 21 21 16.9706 21 12C21 7.02944 16.9706 3 12 3ZM1 12C1 5.92487 5.92487 1 12 1C18.0751 1 23 5.92487 23 12C23 18.0751 18.0751 23 12 23C5.92487 23 1 18.0751 1 12Z" fill="#1E2B3C"/>
</svg>
