<svg width="24" height="24" viewBox="0 0 24 24" fill="none" xmlns="http://www.w3.org/2000/svg">
<path fill-rule="evenodd" clip-rule="evenodd" d="M3 9C3 8.44772 3.44772 8 4 8H20C20.5523 8 21 8.44772 21 9C21 9.55228 20.5523 10 20 10H4C3.44772 10 3 9.55228 3 9Z" fill="#1E2B3C"/>
<path fill-rule="evenodd" clip-rule="evenodd" d="M3 15C3 14.4477 3.44772 14 4 14H20C20.5523 14 21 14.4477 21 15C21 15.5523 20.5523 16 20 16H4C3.44772 16 3 15.5523 3 15Z" fill="#1E2B3C"/>
<path fill-rule="evenodd" clip-rule="evenodd" d="M10.1105 2.00614C10.6594 2.06713 11.055 2.56155 10.994 3.11046L8.99397 21.1105C8.93298 21.6594 8.43856 22.0549 7.88966 21.9939C7.34075 21.9329 6.94521 21.4385 7.0062 20.8896L9.0062 2.8896C9.06719 2.34069 9.56161 1.94515 10.1105 2.00614Z" fill="#1E2B3C"/>
<path fill-rule="evenodd" clip-rule="evenodd" d="M16.1105 2.00614C16.6594 2.06713 17.055 2.56155 16.994 3.11046L14.994 21.1105C14.933 21.6594 14.4386 22.0549 13.8897 21.9939C13.3407 21.9329 12.9452 21.4385 13.0062 20.8896L15.0062 2.8896C15.0672 2.34069 15.5616 1.94515 16.1105 2.00614Z" fill="#1E2B3C"/>
</svg>
