<svg width="24" height="24" viewBox="0 0 24 24" fill="none" xmlns="http://www.w3.org/2000/svg">
<path fill-rule="evenodd" clip-rule="evenodd" d="M14.462 2.49324C15.2508 2.1664 16.0963 1.99817 16.9501 1.99817C17.804 1.99817 18.6495 2.1664 19.4383 2.49324C20.2269 2.82003 20.9435 3.29897 21.5471 3.90272C22.1508 4.50627 22.6301 5.22318 22.9569 6.01185C23.2837 6.80066 23.4519 7.64614 23.4519 8.49999C23.4519 9.35384 23.2837 10.1993 22.9569 10.9881C22.6301 11.7769 22.1511 12.4935 21.5472 13.0971C21.5472 13.0972 21.5473 13.097 21.5472 13.0971L12.7072 21.9371C12.3167 22.3276 11.6835 22.3276 11.293 21.9371L2.45301 13.0971C1.23378 11.8779 0.548828 10.2242 0.548828 8.49999C0.548828 6.77574 1.23378 5.12212 2.45301 3.90289C3.67224 2.68366 5.32587 1.9987 7.05012 1.9987C8.77437 1.9987 10.428 2.68366 11.6472 3.90289L12.0001 4.25578L12.3528 3.90305C12.3529 3.903 12.3528 3.90311 12.3528 3.90305C12.9564 3.29923 13.6732 2.82006 14.462 2.49324ZM16.9501 3.99817C16.359 3.99817 15.7737 4.11463 15.2276 4.34091C14.6815 4.56719 14.1853 4.89885 13.7674 5.31694L12.7072 6.3771C12.3167 6.76763 11.6835 6.76763 11.293 6.3771L10.233 5.3171C9.38886 4.47295 8.24394 3.9987 7.05012 3.9987C5.8563 3.9987 4.71138 4.47295 3.86723 5.3171C3.02307 6.16126 2.54883 7.30618 2.54883 8.49999C2.54883 9.69381 3.02307 10.8387 3.86723 11.6829L12.0001 19.8158L20.133 11.6829C20.5511 11.265 20.8829 10.7687 21.1092 10.2226C21.3355 9.67645 21.4519 9.09112 21.4519 8.49999C21.4519 7.90887 21.3355 7.32353 21.1092 6.77743C20.8829 6.23133 20.5513 5.73516 20.1332 5.31727C19.7153 4.89918 19.2188 4.56719 18.6727 4.34091C18.1266 4.11463 17.5412 3.99817 16.9501 3.99817Z" fill="#1E2B3C"/>
</svg>
