<svg width="24" height="24" viewBox="0 0 24 24" fill="none" xmlns="http://www.w3.org/2000/svg">
<path fill-rule="evenodd" clip-rule="evenodd" d="M21.7069 1.29289C22.0974 1.68342 22.0974 2.31658 21.7069 2.70711L20.414 4L22.7069 6.29289C23.0974 6.68342 23.0974 7.31658 22.7069 7.70711L19.2069 11.2071C18.8164 11.5976 18.1832 11.5976 17.7927 11.2071L15.4998 8.91421L12.7533 11.6607C13.0608 12.0765 13.3183 12.5285 13.5195 13.0075C13.8515 13.7978 14.0239 14.646 14.0268 15.5033C14.0297 16.3605 13.863 17.2099 13.5362 18.0024C13.2095 18.795 12.7292 19.5151 12.123 20.1213C11.5169 20.7274 10.7968 21.2077 10.0042 21.5344C9.21167 21.8612 8.36232 22.0279 7.50507 22.025C6.64782 22.0221 5.7996 21.8497 5.00926 21.5177C4.21891 21.1857 3.50205 20.7006 2.89996 20.0904L2.89246 20.0828C1.70843 18.8568 1.05331 17.2149 1.06812 15.5106C1.08293 13.8063 1.76652 12.176 2.97168 10.9709C4.17683 9.76574 5.80711 9.08214 7.51139 9.06733C8.88421 9.0554 10.2166 9.47819 11.3236 10.2619L20.2927 1.29289C20.6832 0.902369 21.3164 0.902369 21.7069 1.29289ZM10.7216 12.3559C10.7123 12.3476 10.7031 12.339 10.6941 12.3303C9.84537 11.5106 8.70865 11.057 7.52877 11.0673C6.34888 11.0775 5.22023 11.5508 4.38589 12.3851C3.55155 13.2194 3.07829 14.3481 3.06804 15.528C3.0578 16.7061 3.51 17.8412 4.32738 18.6895C4.74344 19.1101 5.23838 19.4446 5.7839 19.6738C6.33106 19.9037 6.91829 20.023 7.51177 20.025C8.10525 20.027 8.69326 19.9116 9.24195 19.6854C9.79064 19.4592 10.2892 19.1267 10.7088 18.707C11.1285 18.2874 11.461 17.7889 11.6872 17.2402C11.9134 16.6915 12.0288 16.1035 12.0268 15.51C12.0248 14.9165 11.9055 14.3293 11.6756 13.7821C11.452 13.2498 11.128 12.7656 10.7216 12.3559ZM16.914 7.5L18.4998 9.08579L20.5856 7L18.9998 5.41421L16.914 7.5Z" fill="#1E2B3C"/>
</svg>
