<svg width="24" height="24" viewBox="0 0 24 24" fill="none" xmlns="http://www.w3.org/2000/svg">
<path fill-rule="evenodd" clip-rule="evenodd" d="M12 3C7.02944 3 3 7.02944 3 12C3 16.9706 7.02944 21 12 21C16.9706 21 21 16.9706 21 12C21 7.02944 16.9706 3 12 3ZM1 12C1 5.92487 5.92487 1 12 1C18.0751 1 23 5.92487 23 12C23 18.0751 18.0751 23 12 23C5.92487 23 1 18.0751 1 12Z" fill="#1E2B3C"/>
<path fill-rule="evenodd" clip-rule="evenodd" d="M12 9C10.3431 9 9 10.3431 9 12C9 13.6569 10.3431 15 12 15C13.6569 15 15 13.6569 15 12C15 10.3431 13.6569 9 12 9ZM7 12C7 9.23858 9.23858 7 12 7C14.7614 7 17 9.23858 17 12C17 14.7614 14.7614 17 12 17C9.23858 17 7 14.7614 7 12Z" fill="#1E2B3C"/>
<path fill-rule="evenodd" clip-rule="evenodd" d="M4.22307 4.22289C4.61359 3.83236 5.24676 3.83236 5.63728 4.22289L9.87728 8.46289C10.2678 8.85341 10.2678 9.48658 9.87728 9.8771C9.48676 10.2676 8.85359 10.2676 8.46307 9.8771L4.22307 5.6371C3.83254 5.24658 3.83254 4.61341 4.22307 4.22289Z" fill="#1E2B3C"/>
<path fill-rule="evenodd" clip-rule="evenodd" d="M14.123 14.1229C14.5135 13.7324 15.1467 13.7324 15.5372 14.1229L19.7772 18.3629C20.1677 18.7534 20.1677 19.3866 19.7772 19.7771C19.3867 20.1676 18.7535 20.1676 18.363 19.7771L14.123 15.5371C13.7324 15.1466 13.7324 14.5134 14.123 14.1229Z" fill="#1E2B3C"/>
<path fill-rule="evenodd" clip-rule="evenodd" d="M19.7772 4.22289C20.1677 4.61341 20.1677 5.24658 19.7772 5.6371L15.5372 9.8771C15.1467 10.2676 14.5135 10.2676 14.123 9.8771C13.7324 9.48658 13.7324 8.85341 14.123 8.46289L18.363 4.22289C18.7535 3.83236 19.3867 3.83236 19.7772 4.22289Z" fill="#1E2B3C"/>
<path fill-rule="evenodd" clip-rule="evenodd" d="M19.0672 4.93291C19.4577 5.32343 19.4577 5.9566 19.0672 6.34712L15.5372 9.87712C15.1467 10.2676 14.5135 10.2676 14.123 9.87712C13.7324 9.4866 13.7324 8.85343 14.123 8.46291L17.653 4.93291C18.0435 4.54238 18.6767 4.54238 19.0672 4.93291Z" fill="#1E2B3C"/>
<path fill-rule="evenodd" clip-rule="evenodd" d="M9.87728 14.1229C10.2678 14.5134 10.2678 15.1466 9.87728 15.5371L5.63728 19.7771C5.24676 20.1676 4.61359 20.1676 4.22307 19.7771C3.83254 19.3866 3.83254 18.7534 4.22307 18.3629L8.46307 14.1229C8.85359 13.7324 9.48676 13.7324 9.87728 14.1229Z" fill="#1E2B3C"/>
</svg>
