<svg width="24" height="24" viewBox="0 0 24 24" fill="none" xmlns="http://www.w3.org/2000/svg">
<path fill-rule="evenodd" clip-rule="evenodd" d="M12.5 4C11.1651 3.99997 10.1969 4.26424 9.15088 4.7926L9.14709 4.79451C7.90143 5.41707 6.8537 6.37414 6.12125 7.55852C5.3888 8.7429 5.00057 10.1078 5.00003 11.5004L5.00002 11.5026C4.99699 12.665 5.26857 13.8116 5.79263 14.8491C5.91284 15.0871 5.93303 15.3633 5.84871 15.6162L4.58117 19.4189L8.3838 18.1513C8.63674 18.067 8.91289 18.0872 9.15088 18.2074C10.1884 18.7315 11.3351 19.003 12.4974 19C13.7974 18.9966 15.2635 18.6073 16.4415 17.8788C17.6259 17.1463 18.583 16.0986 19.2055 14.8529L19.2074 14.8491C19.7315 13.8116 20.0031 12.665 20 11.5026L20 11.5V11.0284C19.8926 9.19975 19.1178 7.4737 17.8221 6.17797C16.5263 4.88223 14.8003 4.10743 12.9716 4H12.5ZM12.5 2C10.8358 1.99997 9.56057 2.3453 8.25105 3.00645C6.67406 3.79505 5.34763 5.00697 4.42024 6.50658C3.49266 8.0065 3.00091 9.73499 3.00003 11.4985C2.99671 12.8332 3.27825 14.1516 3.82392 15.3661L2.05134 20.6838C1.93157 21.0431 2.02509 21.4393 2.29292 21.7071C2.56075 21.9749 2.95692 22.0685 3.31625 21.9487L8.63398 20.1761C9.84881 20.7219 11.1676 21.0035 12.5026 21C14.1557 20.9957 15.9869 20.5115 17.4934 19.5798C18.9931 18.6524 20.2051 17.3259 20.9937 15.7488C21.6588 14.4311 22.0036 12.975 22 11.4989V11C22 10.9816 21.9995 10.9633 21.9985 10.9449C21.87 8.61477 20.8864 6.41392 19.2363 4.76375C17.5861 3.11359 15.3853 2.13007 13.0551 2.00152C13.0368 2.00051 13.0184 2 13 2H12.5C12.5 2 12.5 2 12.5 2Z" fill="#1E2B3C"/>
</svg>
