<svg width="24" height="24" viewBox="0 0 24 24" fill="none" xmlns="http://www.w3.org/2000/svg">
<g clip-path="url(#clip0_575_4162)">
<path fill-rule="evenodd" clip-rule="evenodd" d="M0.292893 0.292893C0.683417 -0.0976311 1.31658 -0.0976311 1.70711 0.292893L23.7071 22.2929C24.0976 22.6834 24.0976 23.3166 23.7071 23.7071C23.3166 24.0976 22.6834 24.0976 22.2929 23.7071L0.292893 1.70711C-0.0976311 1.31658 -0.0976311 0.683417 0.292893 0.292893Z" fill="#1E2B3C"/>
<path fill-rule="evenodd" clip-rule="evenodd" d="M9.62762 0.776428C10.4263 0.1881 11.4151 -0.0824823 12.402 0.0172085C13.3889 0.116899 14.3036 0.579751 14.9685 1.31591C15.2468 1.62402 15.526 1.97471 15.721 2.43509C15.918 2.90027 16 3.40625 16 3.99997V9.33997C16 9.89226 15.5523 10.34 15 10.34C14.4477 10.34 14 9.89226 14 9.33997V3.99997C14 3.59372 13.9445 3.36887 13.8794 3.21517C13.8122 3.05666 13.7046 2.90044 13.4843 2.65643C13.1518 2.28835 12.6945 2.05693 12.201 2.00708C11.7075 1.95724 11.2131 2.09253 10.8138 2.38669C10.4145 2.68086 10.1387 3.11291 10.04 3.59897C9.9301 4.14021 9.40224 4.48987 8.86101 4.37997C8.31977 4.27007 7.9701 3.74222 8.08 3.20098C8.2774 2.22885 8.82896 1.36476 9.62762 0.776428ZM9 7.99997C9.55228 7.99997 10 8.44769 10 8.99997V11.9995C10.0004 12.3946 10.1179 12.7808 10.3376 13.1093C10.5574 13.4379 10.8696 13.694 11.2349 13.8452C11.6001 13.9964 12.002 14.036 12.3897 13.959C12.7774 13.882 13.1336 13.6918 13.4133 13.4124C13.8041 13.0221 14.4373 13.0225 14.8275 13.4133C15.2178 13.8041 15.2174 14.4372 14.8267 14.8275C14.2673 15.3862 13.5549 15.7666 12.7794 15.9207C12.0039 16.0747 11.2002 15.9955 10.4697 15.693C9.73927 15.3906 9.11481 14.8784 8.67524 14.2213C8.23567 13.5641 8.0007 12.7915 8 12.0009L8 8.99997C8 8.44769 8.44772 7.99997 9 7.99997Z" fill="#1E2B3C"/>
<path fill-rule="evenodd" clip-rule="evenodd" d="M4.99994 9C5.55223 9 5.99994 9.44772 5.99994 10V11.996C5.99121 13.1825 6.33912 14.345 6.99975 15.3343C7.66043 16.3238 8.60395 17.0952 9.70992 17.5489C10.816 18.0025 12.0334 18.1173 13.2058 17.8783C14.3782 17.6394 15.4513 17.0577 16.2876 16.2088C16.6752 15.8154 17.3084 15.8107 17.7018 16.1984C18.0952 16.586 18.0999 17.2191 17.7123 17.6125C16.5962 18.7452 15.1659 19.5199 13.6053 19.838C12.0447 20.1562 10.424 20.0034 8.95095 19.3993C7.47786 18.795 6.21897 17.7666 5.33647 16.445C4.45463 15.1243 3.98903 13.5714 3.99994 11.9851V10C3.99994 9.44772 4.44766 9 4.99994 9ZM18.9999 9C19.5522 9 19.9999 9.44772 19.9999 10V11.9887C19.9995 12.458 19.9574 12.9273 19.8741 13.3893C19.776 13.9328 19.2559 14.2939 18.7124 14.1958C18.1689 14.0978 17.8078 13.5777 17.9058 13.0342C17.9681 12.6888 17.9996 12.3387 17.9999 11.9878V10C17.9999 9.44772 18.4477 9 18.9999 9Z" fill="#1E2B3C"/>
<path fill-rule="evenodd" clip-rule="evenodd" d="M12 18C12.5523 18 13 18.4477 13 19V23C13 23.5523 12.5523 24 12 24C11.4477 24 11 23.5523 11 23V19C11 18.4477 11.4477 18 12 18Z" fill="#1E2B3C"/>
<path fill-rule="evenodd" clip-rule="evenodd" d="M7 23C7 22.4477 7.44772 22 8 22H16C16.5523 22 17 22.4477 17 23C17 23.5523 16.5523 24 16 24H8C7.44772 24 7 23.5523 7 23Z" fill="#1E2B3C"/>
</g>
<defs>
<clipPath id="clip0_575_4162">
<rect width="24" height="24" fill="white"/>
</clipPath>
</defs>
</svg>
