<svg width="24" height="24" viewBox="0 0 24 24" fill="none" xmlns="http://www.w3.org/2000/svg">
<g clip-path="url(#clip0_575_4086)">
<path fill-rule="evenodd" clip-rule="evenodd" d="M14.056 0.889614C14.117 0.340706 14.6114 -0.054838 15.1603 0.00614132C17.4151 0.256626 19.5177 1.26634 21.1228 2.86948C22.728 4.47263 23.7404 6.57393 23.9937 8.82836C24.0553 9.37719 23.6604 9.8721 23.1116 9.93377C22.5628 9.99544 22.0679 9.60052 22.0062 9.05169C21.8035 7.24814 20.9936 5.5671 19.7095 4.28459C18.4254 3.00207 16.7433 2.1943 14.9395 1.99391C14.3906 1.93293 13.9951 1.43852 14.056 0.889614ZM7.78166 3.24174C7.59767 3.08352 7.36243 2.99759 7.11977 2.99998L7.10993 3.00008L4.11046 3.00003C3.97177 3.00022 3.83464 3.02925 3.70777 3.08529C3.58078 3.14138 3.46686 3.2233 3.37326 3.32584C3.27966 3.42837 3.20844 3.54927 3.16413 3.68084C3.12051 3.81033 3.10391 3.94735 3.1153 4.08346C3.42805 7.01502 4.42624 9.8319 6.02921 12.3063L6.03398 12.3137C7.49058 14.606 9.43399 16.5494 11.7263 18.006L11.7341 18.011C14.1969 19.6081 16.9996 20.606 19.9175 20.9247C20.0537 20.936 20.1908 20.9192 20.3203 20.8754C20.4522 20.8308 20.5734 20.7592 20.676 20.665C20.7786 20.5709 20.8604 20.4563 20.9162 20.3288C20.9158 20.3296 20.9158 20.33 20.9162 20.3288C20.9179 20.324 20.9259 20.3016 20.937 20.258C20.9498 20.2083 20.9621 20.1493 20.9728 20.0876C20.9834 20.0265 20.9913 19.9702 20.9962 19.9281C20.9979 19.9133 20.9991 19.9017 20.9999 19.8934V16.92C20.9999 16.9153 21 16.9105 21 16.9057C21.0001 16.9022 21.0002 16.8987 21.0002 16.8952C21.0063 16.65 20.9221 16.4111 20.7635 16.224C20.6057 16.0377 20.3853 15.9157 20.1438 15.8807C19.1108 15.7441 18.0966 15.4912 17.1203 15.1269L17.1181 15.1261C16.9391 15.0588 16.7446 15.0442 16.5576 15.0841C16.3714 15.1238 16.2004 15.2159 16.0647 15.3495L14.797 16.6171C14.4787 16.9354 13.987 17.0018 13.5956 16.7793C10.9356 15.2668 8.73317 13.0643 7.22064 10.4043C6.99813 10.013 7.06451 9.52123 7.38283 9.20292L8.65047 7.93528C8.78404 7.79959 8.87611 7.62857 8.91583 7.44233C8.95571 7.25535 8.94115 7.06085 8.87388 6.88189L8.87304 6.87963C8.50876 5.90342 8.2559 4.88921 8.11924 3.85626C8.08457 3.61743 7.96469 3.39915 7.78166 3.24174ZM7.10551 1.00003C7.83155 0.994191 8.53515 1.25187 9.08573 1.72537C9.63769 2.20006 9.99821 2.85925 10.1001 3.58008L10.1014 3.58926C10.2181 4.47419 10.4345 5.34309 10.7464 6.17938C10.9479 6.71593 10.9914 7.29896 10.8718 7.85949C10.7522 8.42044 10.4743 8.93533 10.071 9.34317L10.0671 9.34715L9.34995 10.0642C10.5258 11.9089 12.0911 13.4742 13.9357 14.65L14.6528 13.9329L14.6568 13.929C15.0646 13.5257 15.5795 13.2477 16.1405 13.1281C16.701 13.0086 17.284 13.0521 17.8206 13.2535C18.6569 13.5655 19.5258 13.7819 20.4107 13.8986L20.4196 13.8998C21.1483 14.0026 21.8137 14.3696 22.2894 14.9311C22.7622 15.489 23.0147 16.2004 22.9999 16.9312V19.92C22.9998 20.0504 22.9728 20.2602 22.9432 20.4304C22.9126 20.606 22.8549 20.8871 22.7487 21.13C22.5813 21.5128 22.3359 21.8563 22.028 22.1388C21.7202 22.4212 21.3568 22.6362 20.961 22.77C20.5653 22.9039 20.146 22.9536 19.7299 22.916L19.7119 22.9142C16.4808 22.5631 13.377 21.4593 10.6497 19.6915C8.11254 18.0785 5.96124 15.9272 4.34826 13.39C2.57424 10.6503 1.4702 7.53135 1.12552 4.28563L1.12399 4.27003C1.08651 3.85523 1.1358 3.43717 1.26874 3.04246C1.40168 2.64776 1.61535 2.28506 1.89614 1.97746C2.17693 1.66986 2.5187 1.42409 2.89968 1.25581C3.28066 1.08753 3.6925 1.00042 4.10899 1.00003H7.10551ZM14.0684 4.80853C14.1742 4.26647 14.6994 3.91277 15.2414 4.01853C16.4135 4.24721 17.4907 4.82044 18.3351 5.66486C19.1795 6.50927 19.7527 7.58645 19.9814 8.75853C20.0872 9.3006 19.7335 9.82576 19.1914 9.93152C18.6494 10.0373 18.1242 9.68358 18.0184 9.14152C17.866 8.36013 17.4838 7.64201 16.9209 7.07907C16.3579 6.51613 15.6398 6.13397 14.8584 5.98152C14.3164 5.87576 13.9627 5.3506 14.0684 4.80853Z" fill="#1E2B3C"/>
</g>
<defs>
<clipPath id="clip0_575_4086">
<rect width="24" height="24" fill="white"/>
</clipPath>
</defs>
</svg>
