<svg width="24" height="24" viewBox="0 0 24 24" fill="none" xmlns="http://www.w3.org/2000/svg">
<path fill-rule="evenodd" clip-rule="evenodd" d="M16.3923 4.99058C17.0318 4.48496 17.9454 4 19 4C19.5523 4 20 4.44772 20 5V7.5918C20.3211 7.93428 20.6685 8.37821 20.8575 9H22C22.5523 9 23 9.44772 23 10V14C23 14.5523 22.5523 15 22 15H20.6636C20.2627 15.7383 19.6591 16.218 19 16.5992V20C19 20.5523 18.5523 21 18 21H14C13.4478 21 13 20.5523 13 20V19H12V20C12 20.5523 11.5523 21 11 21H7.00004C6.44775 21 6.00004 20.5523 6.00004 20V16.9837C5.13179 16.2578 4.59784 15.5241 4.30644 14.6936C3.99939 13.8185 3.99972 12.9183 4.00002 12.0785C4.00003 12.0523 4.00004 12.0261 4.00004 12C4.00004 8.74863 6.34028 6.84955 8.86977 6.00183C11.0558 5.26921 13.6228 5.21917 15.5772 5.79004C15.7956 5.52133 16.072 5.24383 16.3923 4.99058ZM10 19V18C10 17.4477 10.4478 17 11 17H14C14.5523 17 15 17.4477 15 18V19H17V16C17 15.6212 17.214 15.275 17.5528 15.1056C18.4909 14.6366 18.8658 14.3007 19.0422 13.7127C19.1691 13.2897 19.5584 13 20 13H21V11H20C19.4478 11 19 10.5523 19 10C19 9.43968 18.7824 9.1966 18.2929 8.70711C18.1054 8.51957 18 8.26522 18 8V6.30741C17.8751 6.38055 17.752 6.46513 17.6328 6.55942C17.4225 6.72564 17.2478 6.90405 17.1214 7.06113C17.0045 7.20656 16.9596 7.29538 16.9504 7.31358C16.9486 7.31703 16.9482 7.31794 16.9487 7.31623C16.8603 7.58153 16.6648 7.79768 16.4097 7.91224C16.1546 8.0268 15.8632 8.02931 15.6061 7.91915C14.1167 7.28084 11.6239 7.18816 9.5053 7.89817C7.40979 8.60045 6.00004 9.95137 6.00004 12C6.00004 12.938 6.01028 13.5088 6.19364 14.0314C6.35989 14.5052 6.70797 15.0309 7.60004 15.7C7.85184 15.8889 8.00004 16.1852 8.00004 16.5V19H10Z" fill="#1E2B3C"/>
<path fill-rule="evenodd" clip-rule="evenodd" d="M2 8C2.55228 8 3 8.44772 3 9V10C3 10.5477 3.45228 11 4 11H5C5.55228 11 6 11.4477 6 12C6 12.5523 5.55228 13 5 13H4C2.34772 13 1 11.6523 1 10V9C1 8.44772 1.44772 8 2 8Z" fill="#1E2B3C"/>
<path d="M17 11C17 11.5523 16.5523 12 16 12C15.4477 12 15 11.5523 15 11C15 10.4477 15.4477 10 16 10C16.5523 10 17 10.4477 17 11Z" fill="#1E2B3C"/>
</svg>
