<svg width="24" height="24" viewBox="0 0 24 24" fill="none" xmlns="http://www.w3.org/2000/svg">
<path fill-rule="evenodd" clip-rule="evenodd" d="M3.85615 15.7348C4.45542 15.23 5.21994 14.9642 6.0031 14.9885C6.78653 15.0127 7.53341 15.3254 8.1004 15.8666L8.11255 15.8784C9.30096 17.0517 9.28572 18.9351 8.26469 20.1443C7.82202 20.6708 7.21235 21.0574 6.62604 21.3438C6.02785 21.636 5.38232 21.858 4.80247 22.0239C4.21944 22.1907 3.6817 22.3066 3.29056 22.3808C3.0943 22.4181 2.93322 22.4452 2.81969 22.4632C2.76289 22.4722 2.71787 22.479 2.68618 22.4836L2.64879 22.4889L2.63793 22.4904L2.63452 22.4909L2.63332 22.491C2.63312 22.491 2.63247 22.4911 2.49996 21.5C1.50878 21.3674 1.5088 21.3673 1.50883 21.3671L1.50905 21.3654L1.50952 21.362L1.51102 21.3511L1.51635 21.3137C1.52096 21.282 1.5277 21.237 1.53671 21.1802C1.5547 21.0667 1.58181 20.9056 1.61908 20.7094C1.69334 20.3182 1.80925 19.7805 1.97602 19.1974C2.14188 18.6176 2.36392 17.9721 2.65611 17.3739C2.94259 16.7874 3.32938 16.1775 3.85615 15.7348ZM4.49999 16.5L5.14315 17.2657C4.92024 17.4529 4.68222 17.7828 4.45319 18.2517C4.22975 18.7091 4.04554 19.2348 3.8989 19.7475C3.85163 19.9127 3.80887 20.0745 3.77041 20.2295C3.92545 20.191 4.08719 20.1483 4.25245 20.101C4.76511 19.9544 5.29082 19.7702 5.74825 19.5467C6.21715 19.3177 6.54701 19.0797 6.73426 18.8568L6.73623 18.8544C7.13222 18.3859 7.09892 17.6948 6.71323 17.3074C6.50362 17.1102 6.22909 16.9964 5.94127 16.9875C5.65057 16.9785 5.36678 17.0772 5.14438 17.2646L4.49999 16.5ZM2.49996 21.5L1.50883 21.3671C1.46754 21.6759 1.57252 21.9867 1.79285 22.2071C2.01318 22.4274 2.32448 22.5323 2.63332 22.491L2.49996 21.5Z" fill="#1E2B3C"/>
<path fill-rule="evenodd" clip-rule="evenodd" d="M20.9592 3.03868C19.2918 3.174 17.6676 3.66036 16.1949 4.47031C14.4191 5.44705 12.9226 6.86189 11.8479 8.58026L11.8423 8.58924L11.8422 8.58921C11.1968 9.5972 10.639 10.6582 10.1747 11.7605L12.242 13.8277C13.3576 13.3645 14.4322 12.8073 15.4542 12.162C19.6794 9.3238 20.7549 5.61275 20.9592 3.03868ZM12 15L12.3555 15.9347C13.8149 15.3797 15.2149 14.6797 16.5345 13.8452C16.542 13.8404 16.5495 13.8356 16.5569 13.8306C22.1512 10.0797 23 4.91618 23 2C23 1.45014 22.5561 1.00343 22.0062 1.00002C19.6383 0.985336 17.306 1.5767 15.2311 2.71788C13.1578 3.8582 11.4105 5.5096 10.155 7.51522C9.32221 8.81663 8.62265 10.1987 8.06695 11.6403C7.92472 12.0093 8.01329 12.4275 8.29292 12.7071L11.2929 15.7071L12 15Z" fill="#1E2B3C"/>
<path fill-rule="evenodd" clip-rule="evenodd" d="M7.55724 8.5401C7.1024 8.58237 6.7704 8.6885 6.55538 8.83162C6.12053 9.12296 5.70921 9.84217 5.39632 10.7048C5.35993 10.8051 5.32607 10.9039 5.29468 11H9.00001C9.55229 11 10 11.4477 10 12C10 12.5523 9.55229 13 9.00001 13H4.00001C3.70354 13 3.42235 12.8685 3.23235 12.6409C3.04235 12.4133 2.96314 12.1131 3.01609 11.8214L4.00001 12C3.01609 11.8214 3.01605 11.8216 3.01609 11.8214L3.01647 11.8193L3.01707 11.816L3.01889 11.8063L3.0251 11.774C3.03038 11.747 3.03798 11.7091 3.04799 11.6616C3.068 11.5667 3.09775 11.433 3.13801 11.2707C3.21817 10.9475 3.34184 10.5034 3.51619 10.0228C3.84065 9.12829 4.42907 7.84779 5.44399 7.16884L5.44531 7.16796C6.0403 6.7713 6.73809 6.60761 7.37215 6.54868C8.01483 6.48895 8.66796 6.53009 9.23533 6.60321C9.80666 6.67685 10.3183 6.78657 10.686 6.87722C10.8707 6.92276 11.0212 6.96404 11.1274 6.99449C11.1805 7.00973 11.2226 7.0223 11.2525 7.03138L11.2881 7.04232L11.2987 7.04565L11.3022 7.04675L11.3034 7.04715C11.3036 7.04722 11.3044 7.04746 11 8.00001L11.3044 7.04746C11.8305 7.21555 12.1207 7.7783 11.9526 8.30438C11.7846 8.83014 11.2224 9.12031 10.6966 8.95287L10.6956 8.95257L10.6925 8.95157L10.6708 8.94491C10.6504 8.9387 10.6183 8.92912 10.5759 8.91694C10.4908 8.89255 10.3647 8.85789 10.2072 8.81906C9.89042 8.74095 9.45585 8.64818 8.97969 8.58681C8.49956 8.52493 8.00393 8.49858 7.55724 8.5401ZM4.98374 12.1796C4.98371 12.1798 4.98371 12.1798 4.98374 12.1796Z" fill="#1E2B3C"/>
<path fill-rule="evenodd" clip-rule="evenodd" d="M15.6956 12.0475C16.2217 11.8794 16.7845 12.1696 16.9526 12.6957L16 13C16.9526 12.6957 16.9525 12.6954 16.9526 12.6957L16.9533 12.6979L16.9544 12.7013L16.9577 12.712L16.9686 12.7475C16.9777 12.7774 16.9903 12.8195 17.0055 12.8727C17.036 12.9788 17.0773 13.1294 17.1228 13.3141C17.2134 13.6817 17.3232 14.1934 17.3968 14.7647C17.4699 15.3321 17.5111 15.9852 17.4513 16.6279C17.3924 17.2619 17.2287 17.9597 16.8321 18.5547L16.8312 18.556C16.1522 19.571 14.8717 20.1594 13.9772 20.4838C13.4966 20.6582 13.0525 20.7819 12.7293 20.862C12.567 20.9023 12.4333 20.932 12.3384 20.952C12.2909 20.9621 12.2531 20.9697 12.226 20.9749L12.1937 20.9811L12.184 20.983L12.1807 20.9836L12.1795 20.9838C12.1793 20.9838 12.1786 20.9839 12 20L12.1795 20.9838C11.8878 21.0367 11.5867 20.9577 11.3591 20.7677C11.1316 20.5777 11 20.2965 11 20V15C11 14.4477 11.4477 14 12 14C12.5523 14 13 14.4477 13 15V18.7054C13.0961 18.674 13.1949 18.6401 13.2953 18.6037C14.1578 18.2908 14.877 17.8795 15.1684 17.4447C15.3115 17.2297 15.4176 16.8977 15.4599 16.4428C15.5014 15.9961 15.4751 15.5005 15.4132 15.0203C15.3518 14.5442 15.2591 14.1096 15.181 13.7929C15.1421 13.6354 15.1075 13.5092 15.0831 13.4242C15.0709 13.3817 15.0613 13.3497 15.0551 13.3293L15.0484 13.3076L15.0474 13.3044C14.8796 12.7784 15.1697 12.2155 15.6956 12.0475Z" fill="#1E2B3C"/>
</svg>
