<svg width="24" height="24" viewBox="0 0 24 24" fill="none" xmlns="http://www.w3.org/2000/svg">
<path fill-rule="evenodd" clip-rule="evenodd" d="M19 7C19.4168 6.99998 19.79 7.25851 19.9364 7.64877L22.9374 15.6488C23.0934 16.0647 22.9563 16.5336 22.6009 16.8001C21.5622 17.5789 20.2989 17.9999 19.0006 17.9999C17.7023 17.9999 16.439 17.5789 15.4002 16.8001C15.0448 16.5337 14.9078 16.0648 15.0637 15.6489L18.0637 7.64888C18.2101 7.25859 18.5832 7.00002 19 7ZM19.0002 10.8476L17.2241 15.584C17.7734 15.8561 18.381 15.9999 19.0006 15.9999C19.6201 15.9999 20.2277 15.8561 20.777 15.584L19.0002 10.8476Z" fill="#1E2B3C"/>
<path fill-rule="evenodd" clip-rule="evenodd" d="M5.00001 7C5.41683 6.99998 5.78995 7.2585 5.93635 7.64877L8.93735 15.6488C9.09337 16.0647 8.95633 16.5336 8.60092 16.8001C7.56215 17.5789 6.29886 17.9999 5.00056 17.9999C3.70227 17.9999 2.53886 17.7788 1.50009 17C1.50009 17 1.06365 16.5998 1.00001 16.5C0.820798 16.219 1.06373 15.6489 1.06373 15.6489L4.06373 7.64888C4.21009 7.25859 4.58318 7.00002 5.00001 7ZM3.22407 15.584C3.7734 15.8561 4.381 15.9999 5.00056 15.9999C5.62009 15.9999 6.22767 15.8561 6.77697 15.584L5.00022 10.8476L3.22407 15.584Z" fill="#1E2B3C"/>
<path fill-rule="evenodd" clip-rule="evenodd" d="M6 21C6 20.4477 6.44772 20 7 20H17C17.5523 20 18 20.4477 18 21C18 21.5523 17.5523 22 17 22H7C6.44772 22 6 21.5523 6 21Z" fill="#1E2B3C"/>
<path fill-rule="evenodd" clip-rule="evenodd" d="M12 2C12.5523 2 13 2.44772 13 3V21C13 21.5523 12.5523 22 12 22C11.4477 22 11 21.5523 11 21V3C11 2.44772 11.4477 2 12 2Z" fill="#1E2B3C"/>
<path fill-rule="evenodd" clip-rule="evenodd" d="M11.5528 4.10557C11.8343 3.96481 12.1657 3.96481 12.4472 4.10557C14.3906 5.07727 17.2266 6 19 6H21C21.5523 6 22 6.44772 22 7C22 7.55228 21.5523 8 21 8H19C16.9292 8 14.0475 7.06819 12 6.11059C9.95248 7.06819 7.0708 8 5 8H3C2.44772 8 2 7.55228 2 7C2 6.44772 2.44772 6 3 6H5C6.77342 6 9.60939 5.07727 11.5528 4.10557Z" fill="#1E2B3C"/>
</svg>
