<svg width="24" height="24" viewBox="0 0 24 24" fill="none" xmlns="http://www.w3.org/2000/svg">
<path d="M9 7C9 6.44772 9.44771 6 10 6C10.5523 6 11 6.44772 11 7V8C11 8.55228 10.5523 9 10 9C9.44771 9 9 8.55228 9 8V7Z" fill="#1E2B3C"/>
<path d="M10 11C9.44771 11 9 11.4477 9 12V13C9 13.5523 9.44771 14 10 14C10.5523 14 11 13.5523 11 13V12C11 11.4477 10.5523 11 10 11Z" fill="#1E2B3C"/>
<path d="M13 7C13 6.44772 13.4477 6 14 6C14.5523 6 15 6.44772 15 7V8C15 8.55228 14.5523 9 14 9C13.4477 9 13 8.55228 13 8V7Z" fill="#1E2B3C"/>
<path d="M14 11C13.4477 11 13 11.4477 13 12V13C13 13.5523 13.4477 14 14 14C14.5523 14 15 13.5523 15 13V12C15 11.4477 14.5523 11 14 11Z" fill="#1E2B3C"/>
<path fill-rule="evenodd" clip-rule="evenodd" d="M5 8V3C5 2.44772 5.44772 2 6 2H18C18.5523 2 19 2.44772 19 3V8H23C23.5523 8 24 8.44772 24 9V21C24 21.5523 23.5523 22 23 22H1C0.447715 22 0 21.5523 0 21V9C0 8.44772 0.447715 8 1 8H5ZM7 4H17V20H15V18C15 16.8954 14.1046 16 13 16H11C9.89543 16 9 16.8954 9 18V20H7V4ZM5 10H2V20H5V10ZM11 20H13V18H11V20ZM19 20H22V10H19V20Z" fill="#1E2B3C"/>
</svg>
