<svg width="24" height="24" viewBox="0 0 24 24" fill="none" xmlns="http://www.w3.org/2000/svg">
<mask id="path-1-inside-1_637_6942" fill="white">
<rect y="8" width="7" height="14" rx="1"/>
</mask>
<rect y="8" width="7" height="14" rx="1" stroke="#1E2B3C" stroke-width="4" mask="url(#path-1-inside-1_637_6942)"/>
<mask id="path-2-inside-2_637_6942" fill="white">
<rect x="17" y="8" width="7" height="14" rx="1"/>
</mask>
<rect x="17" y="8" width="7" height="14" rx="1" stroke="#1E2B3C" stroke-width="4" mask="url(#path-2-inside-2_637_6942)"/>
<rect x="9" y="6" width="2" height="3" rx="1" fill="#1E2B3C"/>
<rect x="9" y="11" width="2" height="3" rx="1" fill="#1E2B3C"/>
<rect x="13" y="6" width="2" height="3" rx="1" fill="#1E2B3C"/>
<rect x="13" y="11" width="2" height="3" rx="1" fill="#1E2B3C"/>
<path d="M10 21V18C10 17.4477 10.4477 17 11 17H13C13.5523 17 14 17.4477 14 18V21" stroke="#1E2B3C" stroke-width="2" stroke-linecap="round"/>
<mask id="path-8-inside-3_637_6942" fill="white">
<rect x="5" y="2" width="14" height="20" rx="1"/>
</mask>
<rect x="5" y="2" width="14" height="20" rx="1" stroke="#1E2B3C" stroke-width="4" mask="url(#path-8-inside-3_637_6942)"/>
</svg>
