<svg width="24" height="24" viewBox="0 0 24 24" fill="none" xmlns="http://www.w3.org/2000/svg">
<path fill-rule="evenodd" clip-rule="evenodd" d="M10.528 2.28312C10.9773 2.03017 11.4842 1.89728 11.9998 1.89728C12.5154 1.89728 13.0223 2.03017 13.4716 2.28312C13.9209 2.53607 14.2974 2.90055 14.5648 3.34139L14.5677 3.34614L23.0376 17.4862L23.0458 17.5C23.3077 17.9536 23.4463 18.4679 23.4478 18.9917C23.4493 19.5156 23.3135 20.0307 23.0541 20.4858C22.7947 20.9408 22.4207 21.3201 21.9692 21.5857C21.5177 21.8514 21.0046 21.9942 20.4808 22L20.4698 22.0001L3.51879 22C2.99498 21.9943 2.48182 21.8514 2.03035 21.5857C1.57887 21.3201 1.20483 20.9408 0.945426 20.4858C0.686022 20.0307 0.550303 19.5156 0.55177 18.9917C0.553236 18.4679 0.691839 17.9536 0.953786 17.5L0.961909 17.4862L9.43476 3.34139C9.70217 2.90055 10.0787 2.53607 10.528 2.28312ZM11.9998 3.89728C11.8279 3.89728 11.6589 3.94157 11.5092 4.02589C11.3601 4.10983 11.235 4.23061 11.146 4.37666L2.68246 18.5058C2.59729 18.6556 2.55224 18.8249 2.55176 18.9973C2.55127 19.172 2.59651 19.3436 2.68298 19.4953C2.76945 19.647 2.89413 19.7735 3.04462 19.862C3.1938 19.9498 3.36317 19.9973 3.53617 20H20.4634C20.6364 19.9973 20.8058 19.9498 20.9549 19.862C21.1054 19.7735 21.2301 19.647 21.3166 19.4953C21.403 19.3436 21.4483 19.172 21.4478 18.9973C21.4473 18.825 21.4023 18.6557 21.3171 18.5059L12.8548 4.37865C12.8544 4.37799 12.854 4.37732 12.8536 4.37666C12.7645 4.23061 12.6395 4.10983 12.4904 4.02589C12.3406 3.94157 12.1716 3.89728 11.9998 3.89728Z" fill="#1E2B3C"/>
</svg>
