<svg width="24" height="24" viewBox="0 0 24 24" fill="none" xmlns="http://www.w3.org/2000/svg">
<g clip-path="url(#clip0_575_3806)">
<path fill-rule="evenodd" clip-rule="evenodd" d="M5 12C4.44772 12 4 12.4477 4 13V20C4 20.5523 4.44772 21 5 21H19C19.5523 21 20 20.5523 20 20V13C20 12.4477 19.5523 12 19 12H5ZM2 13C2 11.3431 3.34315 10 5 10H19C20.6569 10 22 11.3431 22 13V20C22 21.6569 20.6569 23 19 23H5C3.34315 23 2 21.6569 2 20V13Z" fill="#1E2B3C"/>
<path fill-rule="evenodd" clip-rule="evenodd" d="M14.3724 2.77948C13.5737 2.19116 12.5849 1.92057 11.598 2.02026C10.6111 2.11996 9.69637 2.58281 9.0315 3.31897C8.66812 3.7213 8.42123 4.08715 8.25905 4.48503C8.0977 4.88085 8 5.35811 8 6.00504V10.005C8 10.5573 7.55228 11.005 7 11.005C6.44772 11.005 6 10.5573 6 10.005V6.00504C6 5.14693 6.13144 4.40612 6.407 3.73009C6.68173 3.05611 7.07953 2.49631 7.54725 1.97844C8.54456 0.874204 9.9166 0.179927 11.397 0.0303904C12.8774 -0.119146 14.3606 0.286728 15.5586 1.16922C16.7566 2.05171 17.5839 3.34786 17.88 4.80604C17.9899 5.34728 17.6402 5.87514 17.099 5.98504C16.5578 6.09494 16.0299 5.74527 15.92 5.20403C15.7226 4.23191 15.171 3.36781 14.3724 2.77948Z" fill="#1E2B3C"/>
</g>
<defs>
<clipPath id="clip0_575_3806">
<rect width="24" height="24" fill="white"/>
</clipPath>
</defs>
</svg>
