<svg width="24" height="24" viewBox="0 0 24 24" fill="none" xmlns="http://www.w3.org/2000/svg">
<path fill-rule="evenodd" clip-rule="evenodd" d="M6 7C6 8.65685 7.34315 10 9 10C10.6569 10 12 8.65685 12 7C12 5.34315 10.6569 4 9 4C7.34315 4 6 5.34315 6 7ZM9 2C6.23858 2 4 4.23858 4 7C4 9.76142 6.23858 12 9 12C11.7614 12 14 9.76142 14 7C14 4.23858 11.7614 2 9 2Z" fill="#1E2B3C"/>
<path fill-rule="evenodd" clip-rule="evenodd" d="M15.5976 20C15.2706 19.2104 14.7469 18.4703 14.0354 17.838C12.7359 16.6828 10.9278 16 9.00021 16C7.07262 16 5.26455 16.6828 3.96498 17.838C3.25355 18.4703 2.72985 19.2104 2.40286 20L15.5976 20ZM17.7145 20C17.3159 18.6279 16.5106 17.3622 15.3642 16.3431C13.6763 14.8429 11.3872 14 9.00021 14C6.61326 14 4.32408 14.8429 2.63625 16.3431C1.48978 17.3622 0.684565 18.6279 0.285974 20C0.143987 20.4888 0.0535982 20.991 0.0177631 21.5004C-0.0016149 21.7759 0.22407 22 0.500212 22L17.5002 22C17.7764 22 18.002 21.7759 17.9827 21.5004C17.9468 20.991 17.8564 20.4888 17.7145 20Z" fill="#1E2B3C"/>
<path fill-rule="evenodd" clip-rule="evenodd" d="M19.032 14.75C19.1701 14.2153 19.7155 13.8937 20.2502 14.0318C21.3971 14.3279 22.3291 15.1362 22.9519 15.9397C23.6307 16.8152 23.9994 17.8914 24.0002 18.9993L24.0002 21C24.0002 21.2652 23.8949 21.5196 23.7073 21.7071C23.5198 21.8946 23.2655 22 23.0002 22L21.0002 22C20.448 22 20.0002 21.5523 20.0002 21C20.0002 20.4477 20.448 20 21.0002 20L22.0002 20L22.0002 19.0007C22.0002 19.0006 22.0002 19.0008 22.0002 19.0007C21.9997 18.3361 21.7784 17.6902 21.3713 17.165C20.9081 16.5675 20.3197 16.1153 19.7502 15.9682C19.2155 15.8302 18.8939 15.2847 19.032 14.75Z" fill="#1E2B3C"/>
<path fill-rule="evenodd" clip-rule="evenodd" d="M15.0315 2.75196C15.1685 2.21693 15.7133 1.89426 16.2483 2.03125C17.398 2.32561 18.333 3.13413 18.9578 3.93914C19.6386 4.81615 20.0081 5.89479 20.0081 7.005C20.0081 8.11521 19.6386 9.19385 18.9578 10.0709C18.3285 10.8816 17.393 11.6757 16.2483 11.9687C15.7133 12.1057 15.1685 11.7831 15.0315 11.248C14.8945 10.713 15.2172 10.1682 15.7522 10.0312C16.3283 9.88373 16.918 9.437 17.3779 8.84452C17.7864 8.31831 18.0081 7.67113 18.0081 7.005C18.0081 6.33887 17.7864 5.69169 17.3779 5.16548C16.9136 4.56728 16.3233 4.11498 15.7522 3.96875C15.2172 3.83176 14.8945 3.28698 15.0315 2.75196Z" fill="#1E2B3C"/>
</svg>
