<svg width="24" height="24" viewBox="0 0 24 24" fill="none" xmlns="http://www.w3.org/2000/svg">
<path fill-rule="evenodd" clip-rule="evenodd" d="M6 7C6 8.65685 7.34315 10 9 10C10.6569 10 12 8.65685 12 7C12 5.34315 10.6569 4 9 4C7.34315 4 6 5.34315 6 7ZM9 2C6.23858 2 4 4.23858 4 7C4 9.76142 6.23858 12 9 12C11.7614 12 14 9.76142 14 7C14 4.23858 11.7614 2 9 2Z" fill="#1E2B3C"/>
<path fill-rule="evenodd" clip-rule="evenodd" d="M15.5976 20C15.2706 19.2104 14.7469 18.4703 14.0354 17.838C12.7359 16.6828 10.9278 16 9.00021 16C7.07262 16 5.26455 16.6828 3.96498 17.838C3.25355 18.4703 2.72985 19.2104 2.40286 20L15.5976 20ZM17.7145 20C17.3159 18.6279 16.5106 17.3622 15.3642 16.3431C13.6763 14.8429 11.3872 14 9.00021 14C6.61326 14 4.32408 14.8429 2.63625 16.3431C1.48978 17.3622 0.684565 18.6279 0.285974 20C0.143987 20.4888 0.0535982 20.991 0.0177631 21.5004C-0.0016149 21.7759 0.22407 22 0.500212 22L17.5002 22C17.7764 22 18.002 21.7759 17.9827 21.5004C17.9468 20.991 17.8564 20.4888 17.7145 20Z" fill="#1E2B3C"/>
<path fill-rule="evenodd" clip-rule="evenodd" d="M23.7071 7.29289C24.0976 7.68342 24.0976 8.31658 23.7071 8.70711L18.7071 13.7071C18.3166 14.0976 17.6834 14.0976 17.2929 13.7071C16.9024 13.3166 16.9024 12.6834 17.2929 12.2929L22.2929 7.29289C22.6834 6.90237 23.3166 6.90237 23.7071 7.29289Z" fill="#1E2B3C"/>
<path fill-rule="evenodd" clip-rule="evenodd" d="M17.2929 7.29289C17.6834 6.90237 18.3166 6.90237 18.7071 7.29289L23.7071 12.2929C24.0976 12.6834 24.0976 13.3166 23.7071 13.7071C23.3166 14.0976 22.6834 14.0976 22.2929 13.7071L17.2929 8.70711C16.9024 8.31658 16.9024 7.68342 17.2929 7.29289Z" fill="#1E2B3C"/>
</svg>
