<svg width="24" height="24" viewBox="0 0 24 24" fill="none" xmlns="http://www.w3.org/2000/svg">
<path fill-rule="evenodd" clip-rule="evenodd" d="M9 7C9 8.65685 10.3431 10 12 10C13.6569 10 15 8.65685 15 7C15 5.34315 13.6569 4 12 4C10.3431 4 9 5.34315 9 7ZM12 2C9.23858 2 7 4.23858 7 7C7 9.76142 9.23858 12 12 12C14.7614 12 17 9.76142 17 7C17 4.23858 14.7614 2 12 2Z" fill="#1E2B3C"/>
<path fill-rule="evenodd" clip-rule="evenodd" d="M18.5976 20C18.2706 19.2104 17.7469 18.4703 17.0354 17.838C15.7359 16.6828 13.9278 16 12.0002 16C10.0726 16 8.26455 16.6828 6.96498 17.838C6.25355 18.4703 5.72985 19.2104 5.40286 20L18.5976 20ZM20.7145 20C20.3159 18.6279 19.5106 17.3622 18.3642 16.3431C16.6763 14.8429 14.3872 14 12.0002 14C9.61326 14 7.32408 14.8429 5.63625 16.3431C4.48978 17.3622 3.68457 18.6279 3.28597 20C3.14399 20.4888 3.0536 20.991 3.01776 21.5004C2.99839 21.7759 3.22407 22 3.50021 22L20.5002 22C20.7764 22 21.002 21.7759 20.9827 21.5004C20.9468 20.991 20.8564 20.4888 20.7145 20Z" fill="#1E2B3C"/>
</svg>
