<svg width="24" height="24" viewBox="0 0 24 24" fill="none" xmlns="http://www.w3.org/2000/svg">
<path fill-rule="evenodd" clip-rule="evenodd" d="M12 6C8.68629 6 6 8.68629 6 12C6 15.3137 8.68629 18 12 18C15.3137 18 18 15.3137 18 12C18 8.68629 15.3137 6 12 6ZM4 12C4 7.58172 7.58172 4 12 4C16.4183 4 20 7.58172 20 12C20 16.4183 16.4183 20 12 20C7.58172 20 4 16.4183 4 12Z" fill="#1E2B3C"/>
<path fill-rule="evenodd" clip-rule="evenodd" d="M12 8C12.5523 8 13 8.44772 13 9V11.5858L14.2071 12.7929C14.5976 13.1834 14.5976 13.8166 14.2071 14.2071C13.8166 14.5976 13.1834 14.5976 12.7929 14.2071L11.2929 12.7071C11.1054 12.5196 11 12.2652 11 12V9C11 8.44772 11.4477 8 12 8Z" fill="#1E2B3C"/>
<path fill-rule="evenodd" clip-rule="evenodd" d="M7 2C7 0.89543 7.89543 0 9 0H15C16.1046 0 17 0.895431 17 2V6C17 6.55228 16.5523 7 16 7C15.4477 7 15 6.55228 15 6V2H9V6C9 6.55228 8.55228 7 8 7C7.44772 7 7 6.55228 7 6V2Z" fill="#1E2B3C"/>
<path fill-rule="evenodd" clip-rule="evenodd" d="M17 22C17 23.1046 16.1046 24 15 24L9 24C7.89543 24 7 23.1046 7 22L7 18C7 17.4477 7.44772 17 8 17C8.55228 17 9 17.4477 9 18L9 22L15 22L15 18C15 17.4477 15.4477 17 16 17C16.5523 17 17 17.4477 17 18L17 22Z" fill="#1E2B3C"/>
</svg>
