<svg width="24" height="24" viewBox="0 0 24 24" fill="none" xmlns="http://www.w3.org/2000/svg">
<path fill-rule="evenodd" clip-rule="evenodd" d="M12.04 11.0021C9.70148 11.0021 7.4369 11.8217 5.64003 13.3184C5.21566 13.6718 4.58511 13.6144 4.23165 13.19C3.87819 12.7657 3.93566 12.1351 4.36003 11.7816C6.51628 9.98564 9.23378 9.00214 12.04 9.00214C14.8463 9.00214 17.5638 9.98564 19.72 11.7816C20.1444 12.1351 20.2019 12.7657 19.8484 13.19C19.4949 13.6144 18.8644 13.6718 18.44 13.3184C16.6431 11.8217 14.3786 11.0021 12.04 11.0021Z" fill="#1E2B3C"/>
<path fill-rule="evenodd" clip-rule="evenodd" d="M11.9999 6.00262C8.34771 6.00262 4.82096 7.33511 2.08118 9.75014C1.66688 10.1153 1.03497 10.0755 0.669769 9.66122C0.30457 9.24692 0.344379 8.61501 0.758684 8.24981C3.86376 5.51277 7.86075 4.00262 11.9999 4.00262C16.1391 4.00262 20.1361 5.51277 23.2412 8.24981C23.6555 8.61501 23.6953 9.24692 23.3301 9.66122C22.9649 10.0755 22.333 10.1153 21.9187 9.75014C19.1789 7.33511 15.6522 6.00262 11.9999 6.00262Z" fill="#1E2B3C"/>
<path fill-rule="evenodd" clip-rule="evenodd" d="M12.0051 16.0013C10.9673 16.0013 9.95528 16.3242 9.10928 16.9252C8.65905 17.2451 8.03476 17.1394 7.7149 16.6892C7.39504 16.239 7.50071 15.6147 7.95094 15.2948C9.13534 14.4534 10.5522 14.0013 12.0051 14.0013C13.458 14.0013 14.8749 14.4534 16.0593 15.2948C16.5095 15.6147 16.6152 16.239 16.2953 16.6892C15.9755 17.1394 15.3512 17.2451 14.9009 16.9252C14.0549 16.3242 13.0429 16.0013 12.0051 16.0013Z" fill="#1E2B3C"/>
<path fill-rule="evenodd" clip-rule="evenodd" d="M11 20C11 19.4477 11.4477 19 12 19H12.01C12.5623 19 13.01 19.4477 13.01 20C13.01 20.5523 12.5623 21 12.01 21H12C11.4477 21 11 20.5523 11 20Z" fill="#1E2B3C"/>
</svg>
