<svg width="24" height="24" viewBox="0 0 24 24" fill="none" xmlns="http://www.w3.org/2000/svg">
<g clip-path="url(#clip0_575_3705)">
<path fill-rule="evenodd" clip-rule="evenodd" d="M13.3976 1.0824C13.8049 1.25887 14.0472 1.68274 13.9925 2.12326L13.4025 6.87326C13.3344 7.42133 12.8349 7.81045 12.2868 7.74237C11.7388 7.67429 11.3496 7.17481 11.4177 6.62673L11.5874 5.2609L11.3387 5.55966C10.9855 5.98418 10.3549 6.04193 9.93043 5.68865C9.50591 5.33537 9.44816 4.70484 9.80144 4.28033L12.2314 1.36033C12.5154 1.01912 12.9903 0.905939 13.3976 1.0824Z" fill="#1E2B3C"/>
<path fill-rule="evenodd" clip-rule="evenodd" d="M14.6599 10C14.6599 9.44772 15.1076 9 15.6599 9H20.9999C21.3881 9 21.7412 9.22467 21.9057 9.5763C22.0702 9.92794 22.0163 10.343 21.7675 10.641L19.3375 13.551C18.9835 13.9749 18.3529 14.0316 17.9289 13.6776C17.505 13.3236 17.4483 12.693 17.8023 12.269L18.8621 11H15.6599C15.1076 11 14.6599 10.5523 14.6599 10Z" fill="#1E2B3C"/>
<path fill-rule="evenodd" clip-rule="evenodd" d="M8.6402 7.2318C9.06447 7.58537 9.1218 8.21593 8.76823 8.64021L5.13505 13H12C12.2868 13 12.5599 13.1232 12.7497 13.3382C12.9395 13.5533 13.0279 13.8394 12.9923 14.1241L12.4154 18.7396L15.2318 15.3598C15.5854 14.9356 16.2159 14.8782 16.6402 15.2318C17.0645 15.5854 17.1218 16.2159 16.7682 16.6402L11.7682 22.6402C11.484 22.9812 11.009 23.0941 10.6018 22.9173C10.1946 22.7406 9.95267 22.3165 10.0077 21.876L10.8672 15H3.00001C2.61199 15 2.259 14.7756 2.09442 14.4242C1.92984 14.0728 1.98339 13.6579 2.23179 13.3598L7.23179 7.35984C7.58536 6.93556 8.21592 6.87824 8.6402 7.2318Z" fill="#1E2B3C"/>
<path fill-rule="evenodd" clip-rule="evenodd" d="M0.292893 0.292893C0.683417 -0.0976311 1.31658 -0.0976311 1.70711 0.292893L23.7071 22.2929C24.0976 22.6834 24.0976 23.3166 23.7071 23.7071C23.3166 24.0976 22.6834 24.0976 22.2929 23.7071L0.292893 1.70711C-0.0976311 1.31658 -0.0976311 0.683417 0.292893 0.292893Z" fill="#1E2B3C"/>
</g>
<defs>
<clipPath id="clip0_575_3705">
<rect width="24" height="24" fill="white"/>
</clipPath>
</defs>
</svg>
