<svg width="24" height="24" viewBox="0 0 24 24" fill="none" xmlns="http://www.w3.org/2000/svg">
<path fill-rule="evenodd" clip-rule="evenodd" d="M10 4C6.68629 4 4 6.68629 4 10C4 13.3137 6.68629 16 10 16C13.3137 16 16 13.3137 16 10C16 6.68629 13.3137 4 10 4ZM2 10C2 5.58172 5.58172 2 10 2C14.4183 2 18 5.58172 18 10C18 14.4183 14.4183 18 10 18C5.58172 18 2 14.4183 2 10Z" fill="#1E2B3C"/>
<path fill-rule="evenodd" clip-rule="evenodd" d="M14.2929 14.2929C14.6834 13.9024 15.3166 13.9024 15.7071 14.2929L21.7071 20.2929C22.0977 20.6834 22.0977 21.3166 21.7071 21.7071C21.3166 22.0977 20.6834 22.0977 20.2929 21.7071L14.2929 15.7071C13.9024 15.3166 13.9024 14.6834 14.2929 14.2929Z" fill="#1E2B3C"/>
<path fill-rule="evenodd" clip-rule="evenodd" d="M10 6C10.5523 6 11 6.44772 11 7V13C11 13.5523 10.5523 14 10 14C9.44772 14 9 13.5523 9 13V7C9 6.44772 9.44772 6 10 6Z" fill="#1E2B3C"/>
<path fill-rule="evenodd" clip-rule="evenodd" d="M6 10C6 9.44772 6.44772 9 7 9H13C13.5523 9 14 9.44772 14 10C14 10.5523 13.5523 11 13 11H7C6.44772 11 6 10.5523 6 10Z" fill="#1E2B3C"/>
</svg>
